<svg width="72" height="72" viewBox="0 0 72 72" fill="none" xmlns="http://www.w3.org/2000/svg">
<path d="M61.7317 14.1683H57.8306V10.2921C57.8306 9.57149 57.2591 9 56.5385 9H43.5682C42.8476 9 42.2761 9.57149 42.2761 10.2921V14.1683H38.3751L37.083 15.4603V28.4307L38.3751 29.7228H61.7068L62.9989 28.4307V15.4603L61.7068 14.1683H61.7317ZM44.8851 11.5841H55.2465V14.1683H44.8851V11.5841ZM60.4396 27.1386H39.692V22.1194L50.0534 24.6042L60.4147 22.1194V27.1386H60.4396ZM60.4396 19.4359L50.0782 21.9207L39.7168 19.4359V16.7524H60.4644V19.4359H60.4396Z" fill="#E30613"/>
<path d="M37.109 32.3069V40.0841H26.7476V47.8614H16.3862V55.6386H6V66H63.0248V32.3069H37.109ZM60.4407 63.4159H8.58413V58.2228H18.9455V50.4455H29.3069V42.6683H39.6683V34.891H60.4159V63.4159H60.4407Z" fill="#71CBF4"/>
<path d="M31.9159 29.7227H29.3317V24.8526L6 42.3452V39.115L27.7912 22.7654L23.095 21.3988L23.8405 18.9141L31.9159 21.2746V29.7227Z" fill="#71CBF4"/>
</svg>
