<svg width="72" height="72" viewBox="0 0 72 72" fill="none" xmlns="http://www.w3.org/2000/svg">
<path d="M33.1434 36.6948L31.2394 38.6245H26.9169L21.4881 44.0533H14.1553V41.3261H20.3817L25.8106 35.8972H32.3715L33.1434 36.6948Z" fill="#E30613"/>
<path d="M39.3695 38.6244L44.7983 44.0533H52.1569V41.3517H45.9304L40.5016 35.9229H33.9407L33.1431 36.7205L29.7983 40.0652L25.4501 44.4135V46.3431L26.2734 47.1665C28.589 49.4821 32.3712 49.4821 34.6868 47.1665L37.2083 44.645L46.162 53.5987L37.2083 62.5525L34.095 59.4393L30.8532 56.1974L23.2374 48.5816H21.3077L17.6284 52.2608H14.1035V54.9881H17.6027L28.0744 65.4599H29.9784L33.0916 62.3466L36.2048 65.4599H38.1088L48.5805 54.9881H52.1054V52.2608H48.5805L38.1088 41.7891H36.1791L32.6799 45.2882C31.4707 46.4975 29.5153 46.549 28.2545 45.4169L34.9956 38.6759H39.2923L39.3695 38.6244ZM29.0779 62.501L20.1241 53.5473L22.2854 51.386L28.9492 58.0499L31.2391 60.3398L29.0779 62.501Z" fill="#E30613"/>
<path d="M58.9507 38.6245H53.5218L52.1582 39.9882V56.2747L53.5218 57.6383H58.9507L60.3143 56.2747V39.9882L58.9507 38.6245ZM57.587 54.911H54.8598V41.3261H57.587V54.911Z" fill="#71CBF4"/>
<path d="M12.7915 38.6245H7.36267L5.99902 39.9882V56.2747L7.36267 57.6383H12.7915L14.1552 56.2747V39.9882L12.7915 38.6245ZM11.4279 54.911H8.70058V41.3261H11.4279V54.911Z" fill="#71CBF4"/>
<path d="M65.7429 12.8183V50.8459L64.3792 52.2095H60.314V49.508H63.0413V12.8183C63.0413 10.5798 61.2146 8.75307 58.9761 8.75307H29.1046C27.8696 7.10641 25.8885 6.05151 23.6758 6.05151H58.9761C62.7068 6.05151 65.7686 9.08755 65.7686 12.844" fill="#71CBF4"/>
<path d="M29.0787 8.72729C27.8438 7.08062 25.8626 6 23.6499 6C19.9192 6 16.8574 9.03603 16.8574 12.7925V20.9486L18.2211 22.3123H27.7151V35.8972H30.4424V12.8182C30.4424 11.3002 29.9278 9.8851 29.0787 8.75301M27.7151 19.6107H19.559V12.8182C19.559 10.5798 21.3857 8.75301 23.6242 8.75301C25.8626 8.75301 27.6894 10.5798 27.6894 12.8182V19.6107H27.7151Z" fill="#71CBF4"/>
<path d="M57.5855 14.1819H35.8701V16.8834H57.5855V14.1819Z" fill="#71CBF4"/>
<path d="M46.7278 22.3123H35.8701V25.0395H46.7278V22.3123Z" fill="#71CBF4"/>
<path d="M52.1566 30.4685H35.8701V33.1701H52.1566V30.4685Z" fill="#71CBF4"/>
</svg>
