<svg width="72" height="72" viewBox="0 0 72 72" fill="none" xmlns="http://www.w3.org/2000/svg">
<path d="M9 63.1489H63.1247V21.3142H9V63.1489ZM60.6667 60.6909H11.458V23.7722H60.6667V60.6909Z" fill="#71CBF4"/>
<path d="M58.2087 13.9403V10.2412L56.9918 9H52.0515L50.8347 10.2412V13.9403H45.9187V10.2412L44.6775 9H39.7615L38.5203 10.2412V13.9403H33.6043V10.2412L32.3875 9H27.4472L26.2303 10.2412V13.9403H21.29V10.2412L20.0732 9H15.1572L13.916 10.2412V13.9403H9V21.3143H11.458V16.3983H13.916V18.8563H16.374V18.2479V11.458H18.832V16.3983H20.0732H21.29H26.2303V18.8563H28.6883V18.2479V11.458H31.1463V16.3983H32.3875H33.6043H38.5203V18.8563H40.9783V18.2479V11.458H43.4607V16.3983H44.6775H45.9187H50.8347V18.8563H53.2927V18.2479V11.458H55.7507V16.3983H56.9918H58.2087H60.6667V21.3143H63.1247V13.9403H58.2087Z" fill="#E30613"/>
<path d="M21.3144 28.6885H16.3984V34.8456L17.6396 36.0868H26.2548V29.9296L25.0136 28.6885H21.3144ZM23.7724 33.6288H18.8564V31.1708H23.7724V33.6288Z" fill="#71CBF4"/>
<path d="M36.0635 28.6885H31.1475V34.8456L32.3886 36.0868H41.0038V29.9296L39.7626 28.6885H36.0635ZM38.5215 33.6288H33.6055V31.1708H38.5215V33.6288Z" fill="#71CBF4"/>
<path d="M50.834 28.6885H45.918V34.8456L47.1591 36.0868H55.7743V29.9296L54.5331 28.6885H50.834ZM53.292 33.6288H48.376V31.1708H53.292V33.6288Z" fill="#E30613"/>
<path d="M21.3144 38.5447H16.3984V44.7018L17.6396 45.943H26.2548V39.7858L25.0136 38.5447H21.3144ZM23.7724 43.4607H18.8564V41.0027H23.7724V43.4607Z" fill="#E30613"/>
<path d="M36.0635 38.5447H31.1475V44.7018L32.3886 45.943H41.0038V39.7858L39.7626 38.5447H36.0635ZM38.5215 43.4607H33.6055V41.0027H38.5215V43.4607Z" fill="#E30613"/>
<path d="M50.834 38.5447H45.918V44.7018L47.1591 45.943H55.7743V39.7858L54.5331 38.5447H50.834ZM53.292 43.4607H48.376V41.0027H53.292V43.4607Z" fill="#E30613"/>
<path d="M21.3144 48.3767H16.3984V54.5339L17.6396 55.775H26.2548V49.6179L25.0136 48.3767H21.3144ZM23.7724 53.2927H18.8564V50.8347H23.7724V53.2927Z" fill="#E30613"/>
<path d="M36.0635 48.3767H31.1475V54.5339L32.3886 55.775H41.0038V49.6179L39.7626 48.3767H36.0635ZM38.5215 53.2927H33.6055V50.8347H38.5215V53.2927Z" fill="#71CBF4"/>
</svg>
