<svg width="72" height="72" viewBox="0 0 72 72" fill="none" xmlns="http://www.w3.org/2000/svg">
<path d="M35.0262 6H18.3564L6 12.1909V18.4072V21.8832V57.8107L18.3564 63.9509H36.65L36.7008 63.9255H35.4829L32.7427 61.1853H19.0161L8.76561 56.0854V50.8587L11.5058 52.2288V49.1587L8.76561 47.7632V41.2425L17.0371 45.3782V42.2827L8.76561 38.147V31.6009V28.5308V23.2787L18.3564 28.0741H27.1861L29.9517 25.3339H19.0161L8.76561 20.1833V18.4072V13.8909L19.0161 8.74024H34.3665L44.617 13.8909V18.4072V19.7773H47.3826V18.4072V12.1909L35.0262 6Z" fill="#71CBF4"/>
<path d="M22.5419 33.656H19.0152L11.5049 29.9009V32.9963L18.3555 36.4216H22.5419V33.656Z" fill="#71CBF4"/>
<path d="M14.2715 53.6243L18.3565 55.6541H27.2115L24.4712 52.9138H19.0162L14.2715 50.5288V53.6243Z" fill="#71CBF4"/>
<path d="M66.6902 32.7173V51.011L53.7756 63.9256H35.482L27.2106 55.6541L24.4703 52.9139L22.5674 51.011V32.7173L27.1852 28.0742L29.9254 25.3339L35.482 19.7773H53.7756L61.1844 27.1861V31.0935L52.6339 22.543H36.6238L33.8328 25.3339L31.0926 28.0742L25.5106 33.6561L25.3076 33.8591V49.8438L28.3523 52.9139L31.1179 55.6541L36.6238 61.16H52.6339L63.95 49.8438V33.8591H63.9246V29.9517L66.6902 32.7173Z" fill="#E30613"/>
<path d="M48.7529 30.8398H36.3457V41.8769H33.5801V44.6425H36.3457V47.4081H33.5801V50.1737H36.3457V52.9393H39.1113V50.1737H47.3827V47.4081H39.1113V44.6425H48.7782C52.5841 44.6425 55.6796 41.5471 55.6796 37.7412C55.6796 33.9353 52.5841 30.8398 48.7782 30.8398M48.7529 41.8769H39.0859V33.6054H48.7529C51.0364 33.6054 52.8886 35.4576 52.8886 37.7412C52.8886 40.0247 51.0364 41.8769 48.7529 41.8769Z" fill="#E30613"/>
</svg>
