<svg width="27" height="32" viewBox="0 0 27 32" fill="none" xmlns="http://www.w3.org/2000/svg">
<g clip-path="url(#clip0_51_4621)">
<path d="M25.2545 32H4.57089C3.61089 32 2.82544 31.2171 2.82544 30.2603V1.73972C2.82544 0.782875 3.61089 0 4.57089 0H19.8C19.8654 0 19.9309 0.0217465 19.9964 0.043493L20.04 0.0652396L20.0836 0.108733C20.1491 0.184845 22.5163 2.85967 23.5309 4.00136C24.3709 4.95821 25.2218 5.90418 25.8436 6.61094C26.9345 7.83962 26.9345 7.83962 26.9564 7.90486V7.91573C26.9782 7.95923 26.9782 8.01359 26.9782 8.05709V30.2494C27 31.2171 26.2254 32 25.2545 32ZM4.57089 0.685015C3.99271 0.685015 3.51271 1.15257 3.51271 1.73972V30.2494C3.51271 30.8257 3.9818 31.3041 4.57089 31.3041H25.2545C25.8327 31.3041 26.3127 30.8366 26.3127 30.2494V8.17669C25.5927 7.3612 20.4436 1.544 19.68 0.695889H4.57089V0.685015Z" fill="#D7D7D7"/>
<path d="M26.6619 8.06805V30.2604C26.6619 31.0324 26.0292 31.663 25.2546 31.663H4.57097C3.79642 31.663 3.1637 31.0324 3.1637 30.2604V1.73981C3.1637 0.967807 3.79642 0.337158 4.57097 0.337158H19.8001C19.811 0.337158 19.8219 0.337158 19.8328 0.348031C19.9419 0.467637 26.651 8.03543 26.651 8.03543C26.6619 8.0463 26.6619 8.05717 26.6619 8.06805Z" fill="white"/>
<path d="M26.7273 8.04622H21.2073C20.4546 8.04622 19.8327 7.43732 19.8327 6.67619V0.282715C19.9527 0.402321 26.7273 8.03535 26.7273 8.04622ZM6.58911 13.4611H23.2473V14.6572H6.58911V13.4611ZM6.58911 16.5274H23.2473V17.7234H6.58911V16.5274ZM6.58911 19.5936H23.2473V20.7897H6.58911V19.5936ZM6.58911 22.6599H23.2473V23.8559H6.58911V22.6599ZM6.58911 25.7261H23.2473V26.9222H6.58911V25.7261Z" fill="#D7D7D7"/>
<path d="M16.0691 10.8515H0V2.95752H16.0691C16.32 2.95752 16.5164 3.15324 16.5164 3.40332V10.4057C16.5164 10.6558 16.3091 10.8515 16.0691 10.8515Z" fill="#3695D7"/>
<path d="M0 10.8516L2.82545 13.8852V10.8516H0Z" fill="#007AC2"/>
<path d="M1.47046 8.72717V4.6079H2.87639C3.9236 4.6079 5.08653 5.20717 5.08653 6.66754C5.08653 8.07554 3.9236 8.72717 2.87639 8.72717H1.47046ZM2.04324 5.10826V8.22099H2.76067C3.75003 8.22099 4.47324 7.65081 4.47324 6.66754C4.47324 5.64936 3.75003 5.10826 2.76067 5.10826H2.04324Z" fill="white"/>
<path d="M10.0029 6.66172C10.0029 7.93008 9.07718 8.8319 7.82747 8.8319C6.58354 8.8319 5.66361 7.93008 5.66361 6.66172C5.66361 5.3759 6.58354 4.50317 7.82747 4.50317C9.07718 4.50317 10.0029 5.3759 10.0029 6.66172ZM9.38382 6.66172C9.38382 5.7599 8.78211 5.00936 7.82747 5.00936C6.8844 5.00936 6.28268 5.7599 6.28268 6.66172C6.28268 7.58099 6.89018 8.31408 7.82747 8.31408C8.77632 8.31408 9.38382 7.58099 9.38382 6.66172Z" fill="white"/>
<path d="M13.8367 7.77299L14.2938 8.08717C13.9756 8.52354 13.4491 8.8319 12.7316 8.8319C11.4761 8.8319 10.5736 7.93008 10.5736 6.66172C10.5736 5.3759 11.5108 4.50317 12.7548 4.50317C13.316 4.50317 13.9235 4.72426 14.2243 5.14317L13.7731 5.49226C13.5763 5.21299 13.1771 5.00936 12.7548 5.00936C11.8059 5.00936 11.1984 5.7599 11.1984 6.66172C11.1984 7.58681 11.7943 8.3199 12.7374 8.3199C13.1945 8.3199 13.5937 8.1279 13.8367 7.77299Z" fill="white"/>
</g>
<defs>
<clipPath id="clip0_51_4621">
<rect width="27" height="32" fill="white"/>
</clipPath>
</defs>
</svg>
