<svg width="27" height="32" viewBox="0 0 27 32" fill="none" xmlns="http://www.w3.org/2000/svg">
<g clip-path="url(#clip0_51_4623)">
<path d="M25.2545 32H4.57089C3.61089 32 2.82544 31.2171 2.82544 30.2603V1.73972C2.82544 0.782875 3.61089 0 4.57089 0H19.8C19.8654 0 19.9309 0.0217465 19.9964 0.043493L20.04 0.0652396L20.0836 0.108733C20.1491 0.184845 22.5163 2.85967 23.5309 4.00136C24.3709 4.95821 25.2218 5.90418 25.8436 6.61094C26.9345 7.83962 26.9345 7.83962 26.9564 7.90486V7.91573C26.9782 7.95923 26.9782 8.01359 26.9782 8.05709V30.2494C27 31.2171 26.2254 32 25.2545 32ZM4.57089 0.685015C3.99271 0.685015 3.51271 1.15257 3.51271 1.73972V30.2494C3.51271 30.8257 3.9818 31.3041 4.57089 31.3041H25.2545C25.8327 31.3041 26.3127 30.8366 26.3127 30.2494V8.17669C25.5927 7.3612 20.4436 1.544 19.68 0.695889H4.57089V0.685015Z" fill="#D7D7D7"/>
<path d="M26.6619 8.06805V30.2604C26.6619 31.0324 26.0292 31.663 25.2546 31.663H4.57097C3.79642 31.663 3.1637 31.0324 3.1637 30.2604V1.73981C3.1637 0.967807 3.79642 0.337158 4.57097 0.337158H19.8001C19.811 0.337158 19.8219 0.337158 19.8328 0.348031C19.9419 0.467637 26.651 8.03543 26.651 8.03543C26.6619 8.0463 26.6619 8.05717 26.6619 8.06805Z" fill="white"/>
<path d="M26.7273 8.04622H21.2073C20.4546 8.04622 19.8327 7.43732 19.8327 6.67619V0.282715C19.9527 0.402321 26.7273 8.03535 26.7273 8.04622ZM6.58911 13.4611H23.2473V14.6572H6.58911V13.4611ZM6.58911 16.5274H23.2473V17.7234H6.58911V16.5274ZM6.58911 19.5936H23.2473V20.7897H6.58911V19.5936ZM6.58911 22.6599H23.2473V23.8559H6.58911V22.6599ZM6.58911 25.7261H23.2473V26.9222H6.58911V25.7261Z" fill="#D7D7D7"/>
<path d="M0 10.8516L2.82545 13.8852V10.8516H0Z" fill="#BF0706"/>
<path d="M16.0691 10.8515H0V2.95752H16.0691C16.32 2.95752 16.5164 3.15324 16.5164 3.40332V10.4057C16.5164 10.6558 16.3091 10.8515 16.0691 10.8515Z" fill="#F93332"/>
<path d="M3.42065 8.72718V4.60791H4.68152C5.14462 4.60791 5.50654 4.70294 5.76727 4.893C6.02801 5.07918 6.15837 5.36621 6.15837 5.75409C6.15837 6.14973 6.02022 6.44258 5.74392 6.63264C5.47151 6.8227 5.10765 6.91773 4.65234 6.91773H3.99855V8.72718H3.42065ZM3.99855 5.09664V6.429H4.61147C5.25358 6.429 5.57464 6.20403 5.57464 5.75409C5.57464 5.31579 5.25748 5.09664 4.62315 5.09664H3.99855Z" fill="white"/>
<path d="M6.89228 8.72718V4.60791H8.31076C8.58706 4.60791 8.85169 4.64864 9.10464 4.73009C9.36149 4.80767 9.59887 4.92597 9.8168 5.085C10.0347 5.24403 10.2098 5.46124 10.3422 5.73664C10.4745 6.00815 10.5406 6.31846 10.5406 6.66755C10.5406 7.005 10.4745 7.30949 10.3422 7.581C10.2098 7.85252 10.0347 8.06973 9.8168 8.23264C9.60276 8.39167 9.36538 8.51385 9.10464 8.59918C8.8478 8.68452 8.58317 8.72718 8.31076 8.72718H6.89228ZM7.47018 5.10827V8.221H8.19402C8.70381 8.221 9.11826 8.0833 9.43737 7.80791C9.76037 7.52864 9.92187 7.14852 9.92187 6.66755C9.92187 6.17106 9.76232 5.78706 9.44321 5.51555C9.1241 5.24403 8.7077 5.10827 8.19402 5.10827H7.47018Z" fill="white"/>
<path d="M11.9109 6.88864V8.72718H11.333V4.60791H13.9131V5.11409H11.9109V6.39409H13.7847V6.88864H11.9109Z" fill="white"/>
</g>
<defs>
<clipPath id="clip0_51_4623">
<rect width="27" height="32" fill="white"/>
</clipPath>
</defs>
</svg>
