<svg width="27" height="32" viewBox="0 0 27 32" fill="none" xmlns="http://www.w3.org/2000/svg">
<g clip-path="url(#clip0_51_4631)">
<path d="M25.2545 32H4.57089C3.61089 32 2.82544 31.2171 2.82544 30.2603V1.73972C2.82544 0.782875 3.61089 0 4.57089 0H19.8C19.8654 0 19.9309 0.0217465 19.9964 0.043493L20.04 0.0652396L20.0836 0.108733C20.1491 0.184845 22.5163 2.85967 23.5309 4.00136C24.3709 4.95821 25.2218 5.90418 25.8436 6.61094C26.9345 7.83962 26.9345 7.83962 26.9564 7.90486V7.91573C26.9782 7.95923 26.9782 8.01359 26.9782 8.05709V30.2494C27 31.2171 26.2254 32 25.2545 32ZM4.57089 0.685015C3.99271 0.685015 3.51271 1.15257 3.51271 1.73972V30.2494C3.51271 30.8257 3.9818 31.3041 4.57089 31.3041H25.2545C25.8327 31.3041 26.3127 30.8366 26.3127 30.2494V8.17669C25.5927 7.3612 20.4436 1.544 19.68 0.695889H4.57089V0.685015Z" fill="#D7D7D7"/>
<path d="M26.6619 8.06805V30.2604C26.6619 31.0324 26.0292 31.663 25.2546 31.663H4.57097C3.79642 31.663 3.1637 31.0324 3.1637 30.2604V1.73981C3.1637 0.967807 3.79642 0.337158 4.57097 0.337158H19.8001C19.811 0.337158 19.8219 0.337158 19.8328 0.348031C19.9419 0.467637 26.651 8.03543 26.651 8.03543C26.6619 8.0463 26.6619 8.05717 26.6619 8.06805Z" fill="white"/>
<path d="M26.7273 8.04622H21.2073C20.4546 8.04622 19.8327 7.43732 19.8327 6.67619V0.282715C19.9527 0.402321 26.7273 8.03535 26.7273 8.04622ZM6.58911 13.4611H23.2473V14.6572H6.58911V13.4611ZM6.58911 16.5274H23.2473V17.7234H6.58911V16.5274ZM6.58911 19.5936H23.2473V20.7897H6.58911V19.5936ZM6.58911 22.6599H23.2473V23.8559H6.58911V22.6599ZM6.58911 25.7261H23.2473V26.9222H6.58911V25.7261Z" fill="#D7D7D7"/>
<path d="M16.0691 10.8515H0V2.95752H16.0691C16.32 2.95752 16.5164 3.15324 16.5164 3.40332V10.4057C16.5164 10.6558 16.3091 10.8515 16.0691 10.8515Z" fill="#0F7C41"/>
<path d="M0 10.8516L2.82545 13.8852V10.8516H0Z" fill="#0F6134"/>
<path d="M3.756 4.12097L5.05391 6.04301L6.34513 4.12097H6.9205L5.34828 6.38575L7.08775 8.87903H6.48563L5.04053 6.73522L3.60212 8.87903H3L4.73947 6.37903L3.15388 4.12097H3.756Z" fill="white"/>
<path d="M8.32822 4.12097V8.44893H10.536V8.87903H7.84652V4.12097H8.32822Z" fill="white"/>
<path d="M13.9331 4.57796L13.5518 4.8871C13.3287 4.569 13.0032 4.40995 12.575 4.40995C12.3118 4.40995 12.0777 4.48835 11.8725 4.64516C11.6673 4.80197 11.5647 5.02151 11.5647 5.30376C11.5647 5.42025 11.5848 5.52554 11.625 5.61962C11.6696 5.71371 11.7164 5.78763 11.7655 5.8414C11.8145 5.89516 11.8948 5.95116 12.0063 6.00941C12.1223 6.06765 12.2115 6.10797 12.2739 6.13038C12.3408 6.15278 12.4479 6.18862 12.595 6.2379C12.7467 6.28719 12.8448 6.32079 12.8894 6.33871C12.9385 6.35215 13.0277 6.38575 13.157 6.43952C13.2908 6.49328 13.3823 6.54032 13.4313 6.58065C13.4848 6.61649 13.5562 6.67249 13.6454 6.74866C13.7391 6.82482 13.8038 6.90099 13.8394 6.97715C13.8796 7.05332 13.9153 7.1474 13.9465 7.25941C13.9822 7.37142 14 7.49462 14 7.62903C14 8.07258 13.8461 8.41308 13.5384 8.65054C13.2306 8.88351 12.8693 9 12.4545 9C12.1557 9 11.8725 8.93952 11.6049 8.81855C11.3417 8.69758 11.1276 8.52285 10.9626 8.29435L11.3774 7.98521C11.4889 8.16443 11.6383 8.31004 11.8257 8.42204C12.013 8.52957 12.2248 8.58333 12.4612 8.58333C12.7333 8.58333 12.9764 8.50269 13.1905 8.3414C13.4046 8.17563 13.5116 7.94937 13.5116 7.66263C13.5116 7.53271 13.4871 7.41846 13.438 7.31989C13.3934 7.21685 13.3421 7.13396 13.2841 7.07124C13.2262 7.00851 13.1347 6.94803 13.0098 6.88979C12.8894 6.82706 12.7891 6.78226 12.7088 6.75538C12.633 6.72849 12.5148 6.69041 12.3542 6.64113C12.1669 6.58289 12.0085 6.52464 11.8792 6.4664C11.7543 6.40815 11.625 6.32975 11.4912 6.23118C11.3573 6.13262 11.2548 6.00717 11.1834 5.85484C11.1165 5.69803 11.083 5.51658 11.083 5.31048C11.083 5.01927 11.1611 4.77285 11.3172 4.57124C11.4778 4.36514 11.6673 4.21953 11.8859 4.13441C12.1089 4.0448 12.3453 4 12.595 4C12.8939 4 13.1615 4.056 13.3979 4.16801C13.6343 4.27554 13.8127 4.41219 13.9331 4.57796Z" fill="white"/>
</g>
<defs>
<clipPath id="clip0_51_4631">
<rect width="27" height="32" fill="white"/>
</clipPath>
</defs>
</svg>
