<svg width="437" height="71" viewBox="0 0 437 71" fill="none" xmlns="http://www.w3.org/2000/svg">
<path d="M27.9189 0L4.92014 49.3158L0 26.8891L27.9189 0Z" fill="#FD5526"/>
<path d="M24.5997 60.1861L28.6617 68.9396L8.123 58.4697L5.77735 51.49L24.5997 60.1861Z" fill="#1C1C19"/>
<path d="M48.9154 44.9106L41.9929 58.0119L32.7819 62.3028L25.6878 58.9845L24.4863 56.2384L48.9154 44.9106Z" fill="#1C1C19"/>
<path d="M30.3792 68.9964L28.3196 64.4195L26.7177 61.2157L32.8392 64.0762L42.0502 59.7854L30.3792 68.9964Z" fill="#494947"/>
<path d="M13.0999 35.6426L23.4551 57.8976L6.40625 49.8881L13.0999 35.6426Z" fill="#FD5526"/>
<path d="M36.7297 18.9365L48.1719 43.4228L23.8001 54.8078L21.9121 50.7458L36.7297 18.9365Z" fill="#FD5526"/>
<path d="M28.8338 1.88818L13.959 33.7547L21.0531 48.8583L35.8708 16.9919L28.8338 1.88818Z" fill="#FD5526"/>
<path d="M88.3448 27.2486C90.113 27.2486 91.672 27.5441 93.0219 28.1352C94.3909 28.7263 95.4461 29.5558 96.1876 30.6236C96.9481 31.6723 97.3283 32.8926 97.3283 34.2846V34.399C97.3283 36.7062 96.5868 38.4795 95.1038 39.7189C93.6399 40.9392 91.558 41.5494 88.8582 41.5494H78.848V48.4138H72.916V27.2486H88.3448ZM87.4322 37.1733C88.4779 37.1733 89.2764 37.1352 89.8278 37.0589C90.3982 36.9636 90.8735 36.7252 91.2538 36.3439C91.653 35.9435 91.8527 35.3047 91.8527 34.4276C91.8527 33.5314 91.653 32.8831 91.2538 32.4827C90.8735 32.0632 90.3887 31.8058 89.7993 31.7104C89.2289 31.6151 88.4399 31.5674 87.4322 31.5674H86.377C85.9397 31.5674 85.1792 31.5769 84.0955 31.596C83.0308 31.596 81.2721 31.596 78.8195 31.596V37.1733H87.4322Z" fill="black"/>
<path d="M111.379 36.9445L123.756 48.4138H116.084L106.502 39.1755V48.4138H100.598V27.2486H106.502V34.9424L115.571 27.2486H123.328L111.379 36.9445Z" fill="black"/>
<path d="M149.069 26.7051C151.616 26.7051 153.936 27.1913 156.027 28.1638C158.119 29.1172 159.763 30.4424 160.961 32.1394C162.178 33.8365 162.786 35.7433 162.786 37.8598C162.786 39.9572 162.206 41.8545 161.047 43.5515C159.887 45.2486 158.261 46.5833 156.17 47.5558C154.097 48.5091 151.73 48.9858 149.069 48.9858C146.863 48.9858 144.867 48.6331 143.08 47.9276C141.292 47.2221 139.79 46.221 138.574 44.9244C137.357 43.6087 136.492 42.0452 135.978 40.2337H142.224C142.794 41.5494 143.688 42.56 144.905 43.2655C146.141 43.9519 147.519 44.2952 149.04 44.2952C150.77 44.2952 152.32 43.8947 153.689 43.0939C155.058 42.274 155.961 41.1394 156.398 39.6903H147.414V36.0007H156.369C156.065 35.0473 155.523 34.2178 154.744 33.5123C153.983 32.8068 153.099 32.2729 152.092 31.9106C151.084 31.5483 150.067 31.3672 149.04 31.3672C148.146 31.3672 147.224 31.5293 146.274 31.8534C145.323 32.1776 144.467 32.6543 143.707 33.2835C142.965 33.9127 142.443 34.6659 142.138 35.543L135.978 35.5144C136.454 33.7221 137.3 32.168 138.517 30.8524C139.733 29.5176 141.245 28.4975 143.051 27.792C144.857 27.0674 146.863 26.7051 149.069 26.7051Z" fill="black"/>
<path d="M171.864 34.9424H184.412V27.2486H190.344V48.4138H184.412V39.7761H171.864V48.4138H165.961V27.2486H171.864V34.9424Z" fill="black"/>
<path d="M213.907 39.7761H200.103V44.0091L216.302 43.8947V48.4138H194.2V27.2486H216.302L216.331 31.739H200.103V35.3428H213.907V39.7761Z" fill="black"/>
<path d="M235.195 27.2486C236.963 27.2486 238.522 27.5441 239.872 28.1352C241.241 28.7263 242.296 29.5558 243.037 30.6236C243.798 31.6723 244.178 32.8926 244.178 34.2846V34.399C244.178 36.7062 243.437 38.4795 241.954 39.7189C240.49 40.9392 238.408 41.5494 235.708 41.5494H225.698V48.4138H219.766V27.2486H235.195ZM234.282 37.1733C235.328 37.1733 236.126 37.1352 236.678 37.0589C237.248 36.9636 237.723 36.7252 238.103 36.3439C238.503 35.9435 238.702 35.3047 238.702 34.4276C238.702 33.5314 238.503 32.8831 238.103 32.4827C237.723 32.0632 237.238 31.8058 236.649 31.7104C236.079 31.6151 235.29 31.5674 234.282 31.5674H233.227C232.789 31.5674 232.029 31.5769 230.945 31.596C229.88 31.596 228.122 31.596 225.669 31.596V37.1733H234.282Z" fill="black"/>
<path d="M266.784 27.2486V31.6818H253.352V48.4138H247.448V27.2486H266.784Z" fill="black"/>
<path d="M281.671 26.7909C284.218 26.7909 286.509 27.2772 288.544 28.2496C290.578 29.203 292.175 30.5282 293.335 32.2252C294.495 33.9032 295.074 35.8005 295.074 37.917C295.074 40.0144 294.495 41.9022 293.335 43.5801C292.175 45.2581 290.578 46.5833 288.544 47.5558C286.509 48.5091 284.218 48.9858 281.671 48.9858C279.218 48.9858 276.955 48.5091 274.883 47.5558C272.83 46.5833 271.195 45.2581 269.978 43.5801C268.761 41.8831 268.153 39.9954 268.153 37.917C268.153 35.8195 268.751 33.9223 269.949 32.2252C271.166 30.5282 272.811 29.203 274.883 28.2496C276.955 27.2772 279.218 26.7909 281.671 26.7909ZM281.671 44.3238C282.906 44.3238 284.076 44.0759 285.178 43.5801C286.281 43.0653 287.175 42.3312 287.859 41.3778C288.544 40.4053 288.886 39.2517 288.886 37.917C288.886 36.6013 288.544 35.4572 287.859 34.4848C287.175 33.4933 286.281 32.7401 285.178 32.2252C284.076 31.7104 282.906 31.453 281.671 31.453C280.397 31.453 279.199 31.7104 278.077 32.2252C276.974 32.721 276.09 33.4551 275.425 34.4276C274.759 35.4 274.427 36.5441 274.427 37.8598C274.427 39.1945 274.759 40.3577 275.425 41.3492C276.109 42.3216 277.003 43.0653 278.106 43.5801C279.227 44.0759 280.416 44.3238 281.671 44.3238Z" fill="black"/>
<path d="M297.731 37.8598C297.731 35.7433 298.33 33.8365 299.527 32.1394C300.744 30.4424 302.389 29.1172 304.461 28.1638C306.553 27.1913 308.872 26.7051 311.42 26.7051C313.625 26.7051 315.631 27.0674 317.437 27.792C319.263 28.4975 320.774 29.5176 321.972 30.8524C323.189 32.168 324.035 33.7221 324.51 35.5144L318.35 35.543C318.027 34.6659 317.485 33.9127 316.724 33.2835C315.964 32.6543 315.108 32.1776 314.158 31.8534C313.207 31.5293 312.304 31.3672 311.448 31.3672C310.213 31.3672 309.005 31.6246 307.827 32.1394C306.667 32.6543 305.716 33.4074 304.975 34.399C304.233 35.3714 303.862 36.525 303.862 37.8598C303.862 39.2136 304.214 40.3767 304.918 41.3492C305.621 42.3026 306.553 43.0367 307.712 43.5515C308.872 44.0473 310.118 44.2952 311.448 44.2952C312.855 44.2952 314.186 43.9424 315.441 43.2369C316.715 42.5314 317.666 41.5303 318.293 40.2337H324.51C323.997 42.0452 323.132 43.6087 321.915 44.9244C320.698 46.221 319.196 47.2221 317.409 47.9276C315.622 48.6331 313.625 48.9858 311.42 48.9858C308.891 48.9858 306.581 48.4996 304.49 47.5272C302.398 46.5547 300.744 45.2199 299.527 43.5229C298.33 41.8259 297.731 39.9382 297.731 37.8598Z" fill="black"/>
<path d="M326.67 32.1394V27.2486H351.082L326.67 32.1394ZM351.082 27.2486V32.168H341.899V48.4138H335.967V32.168H326.67V27.2486H351.082Z" fill="black"/>
<path d="M369.93 27.2486C371.698 27.2486 373.258 27.5441 374.607 28.1352C375.976 28.7263 377.032 29.5558 377.773 30.6236C378.534 31.6723 378.914 32.8926 378.914 34.2846V34.399C378.914 36.7062 378.172 38.4795 376.689 39.7189C375.225 40.9392 373.143 41.5494 370.444 41.5494H360.433V48.4138H354.501V27.2486H369.93ZM369.018 37.1733C370.063 37.1733 370.862 37.1352 371.413 37.0589C371.984 36.9636 372.459 36.7252 372.839 36.3439C373.239 35.9435 373.438 35.3047 373.438 34.4276C373.438 33.5314 373.239 32.8831 372.839 32.4827C372.459 32.0632 371.974 31.8058 371.385 31.7104C370.814 31.6151 370.025 31.5674 369.018 31.5674H367.962C367.525 31.5674 366.765 31.5769 365.681 31.596C364.616 31.596 362.858 31.596 360.405 31.596V37.1733H369.018Z" fill="black"/>
<path d="M395.046 26.7909C397.594 26.7909 399.885 27.2772 401.919 28.2496C403.953 29.203 405.551 30.5282 406.71 32.2252C407.87 33.9032 408.45 35.8005 408.45 37.917C408.45 40.0144 407.87 41.9022 406.71 43.5801C405.551 45.2581 403.953 46.5833 401.919 47.5558C399.885 48.5091 397.594 48.9858 395.046 48.9858C392.593 48.9858 390.331 48.5091 388.258 47.5558C386.205 46.5833 384.57 45.2581 383.353 43.5801C382.136 41.8831 381.528 39.9954 381.528 37.917C381.528 35.8195 382.127 33.9223 383.325 32.2252C384.541 30.5282 386.186 29.203 388.258 28.2496C390.331 27.2772 392.593 26.7909 395.046 26.7909ZM395.046 44.3238C396.282 44.3238 397.451 44.0759 398.554 43.5801C399.657 43.0653 400.55 42.3312 401.235 41.3778C401.919 40.4053 402.261 39.2517 402.261 37.917C402.261 36.6013 401.919 35.4572 401.235 34.4848C400.55 33.4933 399.657 32.7401 398.554 32.2252C397.451 31.7104 396.282 31.453 395.046 31.453C393.772 31.453 392.574 31.7104 391.453 32.2252C390.35 32.721 389.466 33.4551 388.8 34.4276C388.135 35.4 387.802 36.5441 387.802 37.8598C387.802 39.1945 388.135 40.3577 388.8 41.3492C389.485 42.3216 390.378 43.0653 391.481 43.5801C392.603 44.0759 393.791 44.3238 395.046 44.3238Z" fill="black"/>
<path d="M424.254 27.6776C422.143 27.6776 420.422 27.2104 419.092 26.2761C417.78 25.3227 417.133 23.8926 417.152 21.9858H420.603C420.584 22.9392 420.907 23.721 421.573 24.3312C422.257 24.9223 423.141 25.2178 424.225 25.2178C425.271 25.2178 426.136 24.9127 426.82 24.3026C427.505 23.6924 427.847 22.9202 427.847 21.9858H431.269C431.269 23.8736 430.613 25.2941 429.301 26.2475C428.009 27.2009 426.326 27.6776 424.254 27.6776ZM417.58 41.6066L430.984 27.2486H436.916V48.4138H430.984V34.0558L417.58 48.4138H411.677V27.2486H417.58V41.6066Z" fill="black"/>
</svg>
