<svg width="240" height="39" viewBox="0 0 240 39" fill="none" xmlns="http://www.w3.org/2000/svg">
<path d="M15.3138 0L2.69874 27.0676L0 14.7585L15.3138 0Z" fill="white"/>
<path d="M13.4942 33.0337L15.7222 37.838L4.45653 32.0917L3.16992 28.2607L13.4942 33.0337Z" fill="white"/>
<path d="M26.8312 24.6499L23.0342 31.8407L17.9819 34.1958L14.0906 32.3745L13.4316 30.8673L26.8312 24.6499Z" fill="white"/>
<path d="M16.6627 37.8695L15.533 35.3574L14.6543 33.599L18.012 35.169L23.0643 32.814L16.6627 37.8695Z" fill="white"/>
<path d="M7.18522 19.563L12.8651 31.778L3.51367 27.3818L7.18522 19.563Z" fill="white"/>
<path d="M20.1471 10.3936L26.4233 23.8332L13.0551 30.082L12.0195 27.8525L20.1471 10.3936Z" fill="white"/>
<path d="M15.8152 1.03613L7.65625 18.5265L11.5475 26.8163L19.6751 9.32599L15.8152 1.03613Z" fill="white"/>
<path d="M46.3817 14.8789C47.3482 14.8789 48.2081 15.0422 48.9487 15.3625C49.7018 15.6828 50.2792 16.1412 50.6872 16.7253C51.1014 17.2968 51.3148 17.9625 51.3148 18.7287V18.7915C51.3148 20.0538 50.9068 21.0209 50.0972 21.6992C49.2938 22.3649 48.1516 22.6977 46.6704 22.6977H41.1788V26.447H37.9277V14.8789H46.388H46.3817ZM45.8796 20.305C46.4507 20.305 46.8901 20.2862 47.1913 20.2422C47.5051 20.1919 47.7625 20.0601 47.9759 19.8528C48.1955 19.633 48.3022 19.2876 48.3022 18.804C48.3022 18.3205 48.1955 17.9625 47.9759 17.7427C47.7687 17.5103 47.4989 17.3721 47.1788 17.3219C46.865 17.2717 46.4319 17.2465 45.8796 17.2465H45.3022C45.0637 17.2465 44.6432 17.2465 44.0533 17.2591H41.16V20.305H45.8796Z" fill="white"/>
<path d="M59.0098 20.1794L65.7943 26.447H61.5893L56.3362 21.3977V26.447H53.0977V14.8789H56.3362V19.0866L61.3069 14.8789H65.5621L59.0098 20.1794Z" fill="white"/>
<path d="M79.6764 14.582C81.076 14.582 82.3438 14.8458 83.4923 15.3796C84.6409 15.9009 85.5383 16.6231 86.1973 17.5526C86.8626 18.482 87.1953 19.5245 87.1953 20.6801C87.1953 21.8357 86.8752 22.8656 86.2413 23.7888C85.6074 24.7183 84.7162 25.4468 83.5676 25.9806C82.4317 26.5018 81.1325 26.7593 79.6764 26.7593C78.2204 26.7593 77.3731 26.5646 76.394 26.1815C75.4149 25.7985 74.5927 25.2458 73.9212 24.5424C73.2559 23.8202 72.7789 22.9661 72.4965 21.9801H75.9233C76.2371 22.7023 76.7266 23.2487 77.3919 23.6381C78.0697 24.0149 78.8229 24.2033 79.6576 24.2033C80.4923 24.2033 81.4526 23.9835 82.2057 23.5439C82.9588 23.098 83.4484 22.4762 83.6932 21.6849H78.7664V19.669H83.6743C83.5049 19.1477 83.2099 18.6956 82.7831 18.3062C82.3689 17.9231 81.8794 17.6279 81.3271 17.4332C80.7747 17.2323 80.2162 17.1381 79.6513 17.1381C79.0865 17.1381 78.6534 17.226 78.1325 17.4018C77.6116 17.5777 77.1409 17.8415 76.7266 18.1806C76.3187 18.526 76.0363 18.9342 75.8668 19.4178L72.4902 19.4052C72.7476 18.4255 73.212 17.5777 73.8835 16.8555C74.5488 16.127 75.3773 15.568 76.3689 15.1849C77.3605 14.7893 78.4588 14.5883 79.6701 14.5883L79.6764 14.582Z" fill="white"/>
<path d="M92.1721 19.0866H99.0507V14.8789H102.302V26.447H99.0507V21.7243H92.1721V26.447H88.9336V14.8789H92.1721V19.0866Z" fill="white"/>
<path d="M115.224 21.7306H107.655V24.0417L116.535 23.9789V26.447H104.416V14.8789H116.535L116.548 17.3345H107.648V19.3064H115.217V21.7306H115.224Z" fill="white"/>
<path d="M126.897 14.8789C127.864 14.8789 128.724 15.0422 129.464 15.3625C130.217 15.6828 130.795 16.1412 131.196 16.7253C131.617 17.2968 131.824 17.9625 131.824 18.7287V18.7915C131.824 20.0538 131.416 21.0209 130.607 21.6992C129.803 22.3649 128.661 22.6977 127.18 22.6977H121.694V26.447H118.443V14.8789H126.904H126.897ZM126.395 20.305C126.966 20.305 127.406 20.2862 127.707 20.2422C128.021 20.1919 128.278 20.0601 128.491 19.8528C128.711 19.633 128.818 19.2876 128.818 18.804C128.818 18.3205 128.711 17.9625 128.491 17.7427C128.284 17.5103 128.014 17.3721 127.694 17.3219C127.381 17.2717 126.948 17.2465 126.395 17.2465H125.818C125.579 17.2465 125.159 17.2465 124.569 17.2591H121.676V20.305H126.395Z" fill="white"/>
<path d="M144.22 14.8789V17.3031H136.858V26.447H133.619V14.8789H144.22Z" fill="white"/>
<path d="M152.379 14.6328C153.779 14.6328 155.034 14.8966 156.151 15.4304C157.268 15.9517 158.14 16.6739 158.781 17.6033C159.414 18.5203 159.735 19.5565 159.735 20.712C159.735 21.8676 159.414 22.8913 158.781 23.8082C158.147 24.7251 157.268 25.4473 156.151 25.9811C155.034 26.5024 153.779 26.7599 152.379 26.7599C150.979 26.7599 149.793 26.5024 148.657 25.9811C147.534 25.4473 146.636 24.7251 145.965 23.8082C145.299 22.8787 144.967 21.8488 144.967 20.712C144.967 19.5753 145.293 18.5265 145.952 17.6033C146.617 16.6739 147.521 15.9517 148.657 15.4304C149.793 14.8966 151.036 14.6328 152.379 14.6328ZM152.379 24.2164C153.057 24.2164 153.697 24.0782 154.299 23.8082C154.902 23.5256 155.391 23.1236 155.768 22.6024C156.145 22.0686 156.333 21.4405 156.333 20.712C156.333 19.9835 156.145 19.3681 155.768 18.8343C155.391 18.2942 154.902 17.8797 154.299 17.5971C153.697 17.3145 153.057 17.1763 152.379 17.1763C151.701 17.1763 151.023 17.3145 150.408 17.5971C149.806 17.8671 149.316 18.269 148.952 18.8029C148.588 19.3367 148.406 19.9584 148.406 20.6806C148.406 21.4029 148.588 22.0434 148.952 22.5898C149.329 23.1236 149.818 23.5256 150.421 23.8082C151.036 24.0782 151.689 24.2164 152.373 24.2164H152.379Z" fill="white"/>
<path d="M161.184 20.6801C161.184 19.5245 161.51 18.482 162.169 17.5526C162.834 16.6231 163.738 15.9009 164.874 15.3796C166.023 14.8458 167.29 14.582 168.69 14.582C170.089 14.582 170.999 14.783 171.991 15.1786C172.989 15.5617 173.824 16.1207 174.476 16.8492C175.142 17.5714 175.606 18.4192 175.87 19.3989L172.493 19.4115C172.317 18.9342 172.016 18.5197 171.602 18.1743C171.188 17.8289 170.717 17.5714 170.196 17.3956C169.675 17.2197 169.179 17.1318 168.709 17.1318C168.031 17.1318 167.372 17.27 166.725 17.5526C166.092 17.8352 165.571 18.2434 165.163 18.7898C164.755 19.3236 164.554 19.9516 164.554 20.6801C164.554 21.4086 164.748 22.0555 165.131 22.5893C165.514 23.1105 166.029 23.5125 166.663 23.7951C167.297 24.0651 167.981 24.2033 168.709 24.2033C169.437 24.2033 170.209 24.0086 170.899 23.6255C171.596 23.2424 172.117 22.6898 172.462 21.9864H175.87C175.587 22.9787 175.117 23.8328 174.445 24.5487C173.78 25.2584 172.951 25.8047 171.972 26.1878C170.993 26.5709 169.895 26.7656 168.69 26.7656C167.485 26.7656 166.035 26.5018 164.893 25.968C163.744 25.4342 162.84 24.7057 162.169 23.7762C161.51 22.8468 161.184 21.8168 161.184 20.6801Z" fill="white"/>
<path d="M177.057 17.5543V14.8789H190.444L177.057 17.5543ZM190.437 14.8789V17.5668H185.404V26.447H182.153V17.5668H177.057V14.8789H190.444H190.437Z" fill="white"/>
<path d="M200.774 14.8789C201.74 14.8789 202.6 15.0422 203.341 15.3625C204.094 15.6828 204.671 16.1412 205.079 16.7253C205.494 17.2968 205.707 17.9625 205.707 18.7287V18.7915C205.707 20.0538 205.299 21.0209 204.489 21.6992C203.686 22.3649 202.544 22.6977 201.063 22.6977H195.577V26.447H192.326V14.8789H200.786H200.774ZM200.272 20.305C200.843 20.305 201.282 20.2862 201.583 20.2422C201.897 20.1919 202.155 20.0601 202.368 19.8528C202.588 19.633 202.694 19.2876 202.694 18.804C202.694 18.3205 202.588 17.9625 202.368 17.7427C202.161 17.5103 201.891 17.3721 201.571 17.3219C201.257 17.2717 200.824 17.2465 200.272 17.2465H199.694C199.456 17.2465 199.035 17.2465 198.445 17.2591H195.552V20.305H200.272Z" fill="white"/>
<path d="M214.545 14.6328C215.944 14.6328 217.199 14.8966 218.317 15.4304C219.434 15.9517 220.306 16.6739 220.946 17.6033C221.58 18.5203 221.9 19.5565 221.9 20.712C221.9 21.8676 221.58 22.8913 220.946 23.8082C220.312 24.7251 219.434 25.4473 218.317 25.9811C217.199 26.5024 215.944 26.7599 214.545 26.7599C213.145 26.7599 211.959 26.5024 210.823 25.9811C209.699 25.4473 208.802 24.7251 208.137 23.8082C207.471 22.8787 207.139 21.8488 207.139 20.712C207.139 19.5753 207.465 18.5265 208.124 17.6033C208.789 16.6739 209.693 15.9517 210.829 15.4304C211.965 14.8966 213.208 14.6328 214.551 14.6328H214.545ZM214.545 24.2164C215.222 24.2164 215.863 24.0782 216.471 23.8082C217.074 23.5256 217.563 23.1236 217.94 22.6024C218.317 22.0686 218.505 21.4405 218.505 20.712C218.505 19.9835 218.317 19.3681 217.94 18.8343C217.563 18.2942 217.074 17.8797 216.471 17.5971C215.869 17.3145 215.222 17.1763 214.545 17.1763C213.867 17.1763 213.189 17.3145 212.574 17.5971C211.971 17.8671 211.482 18.269 211.118 18.8029C210.754 19.3367 210.572 19.9584 210.572 20.6806C210.572 21.4029 210.754 22.0434 211.118 22.5898C211.494 23.1236 211.984 23.5256 212.586 23.8082C213.201 24.0782 213.854 24.2164 214.538 24.2164H214.545Z" fill="white"/>
<path d="M230.562 15.115C229.407 15.115 228.459 14.8575 227.731 14.3488C227.009 13.8275 226.658 13.0488 226.67 12.0063H228.559C228.547 12.5275 228.723 12.9546 229.093 13.2874C229.47 13.6077 229.953 13.771 230.549 13.771C231.145 13.771 231.597 13.6014 231.974 13.2686C232.35 12.9357 232.539 12.515 232.539 12H234.415C234.415 13.03 234.057 13.8087 233.336 14.33C232.626 14.8512 231.704 15.1087 230.568 15.1087L230.562 15.115ZM226.903 22.7266L234.252 14.8763H237.503V26.4444H234.252V18.5942L226.903 26.4444H223.664V14.8763H226.903V22.7266Z" fill="white"/>
</svg>
