<svg width="70" height="28" viewBox="0 0 70 28" fill="none" xmlns="http://www.w3.org/2000/svg">
<path d="M35.0002 3.60295H22.7861L27.3023 0.926474L28.8418 0L30.3814 0.926474L33.4606 2.67648L35.0002 3.60295Z" fill="url(#paint0_linear_19472_8055)"/>
<path d="M28.8418 14.2058L25.66 12.3529L24.3257 11.5293L22.7861 10.7058V3.60284L25.7627 8.85286L28.8418 14.2058Z" fill="url(#paint1_linear_19472_8055)"/>
<path d="M47.3167 10.706L44.0322 12.559L42.6979 13.2796L41.1583 14.206L39.6188 13.2796L36.5396 11.5296L35 10.706H47.3167Z" fill="url(#paint2_linear_19472_8055)"/>
<path d="M34.9999 3.60284V10.7058L33.4603 11.5293L28.8416 14.2058L31.9207 8.85286L34.9999 3.60284Z" fill="url(#paint3_linear_19472_8055)"/>
<path d="M41.1583 0L38.0792 5.35296L35 10.7059V3.60295L36.5396 2.67648L39.1056 1.13236L41.1583 0Z" fill="url(#paint4_linear_19472_8055)"/>
<path d="M47.3163 3.60295V10.7059L44.2371 5.35296L41.158 0L45.7767 2.67648L47.3163 3.60295Z" fill="url(#paint5_linear_19472_8055)"/>
<path d="M17.2432 17.1913L12.9324 27.7942H15.9089L18.7828 19.9707L21.6567 27.7942H24.6332L20.425 17.1913H17.2432Z" fill="#58595B"/>
<path d="M40.9531 16.8823C37.566 16.8823 35 19.0441 35 22.4412C35 25.8382 37.4633 28 40.9531 28C44.4428 28 46.9061 25.8382 46.9061 22.4412C46.9061 19.0441 44.4428 16.8823 40.9531 16.8823ZM40.9531 25.7353C39.1056 25.7353 37.8739 24.3971 37.8739 22.5441C37.8739 20.6912 39.1056 19.3529 40.9531 19.3529C42.8006 19.3529 44.0322 20.5882 44.0322 22.5441C44.0322 24.3971 42.8006 25.7353 40.9531 25.7353Z" fill="#58595B"/>
<path d="M4.61876 17.1913L0 27.7942H3.18181L7.49265 25.3236H3.90028L6.05571 19.7648L9.23752 27.7942H12.214L7.49265 17.1913H4.61876Z" fill="#58595B"/>
<path d="M29.8683 17.1913H25.4548V27.7942H28.2261V19.5589H29.663C30.6894 19.5589 31.5105 20.0736 31.5105 21.206C31.5105 22.3383 30.5868 22.853 29.663 22.853H28.9446L30.1762 25.0148C32.229 25.0148 34.1792 23.7795 34.1792 21.103C34.1792 18.3236 32.229 17.1913 29.8683 17.1913Z" fill="#58595B"/>
<path d="M65.3813 17.1913H62.5074L57.8887 27.7942H60.8652L63.9444 19.7648L66.0998 25.3236H62.5074L66.8183 27.7942H70.0001L65.3813 17.1913Z" fill="#58595B"/>
<path d="M53.578 19.25C54.6044 19.25 55.5281 19.5588 56.2466 19.9706L57.1703 17.8088C56.1439 17.1911 54.8096 16.8823 53.578 16.8823C49.7803 16.8823 47.7275 19.5588 47.7275 22.4412C47.7275 25.3235 49.7803 28 53.578 28C54.8096 28 56.1439 27.6912 57.1703 27.0735L56.2466 24.9118C55.5281 25.3235 54.5017 25.6324 53.578 25.6324C52.0384 25.6324 50.6014 24.3971 50.6014 22.4412C50.6014 20.4853 52.0384 19.25 53.578 19.25Z" fill="#58595B"/>
<defs>
<linearGradient id="paint0_linear_19472_8055" x1="22.8331" y1="1.78089" x2="35.1088" y2="1.78089" gradientUnits="userSpaceOnUse">
<stop stop-color="#8A0304"/>
<stop offset="0.5" stop-color="#EC1C24"/>
<stop offset="1" stop-color="#F9B39A"/>
</linearGradient>
<linearGradient id="paint1_linear_19472_8055" x1="27.0416" y1="14.6113" x2="21.0654" y2="4.10784" gradientUnits="userSpaceOnUse">
<stop stop-color="#8A0304"/>
<stop offset="0.5" stop-color="#EC1C24"/>
<stop offset="1" stop-color="#F9B39A"/>
</linearGradient>
<linearGradient id="paint2_linear_19472_8055" x1="49.8194" y1="12.4354" x2="34.3576" y2="12.4354" gradientUnits="userSpaceOnUse">
<stop offset="0.1332" stop-color="#00284E"/>
<stop offset="0.5" stop-color="#007AC1"/>
<stop offset="1" stop-color="#91C5EA"/>
</linearGradient>
<linearGradient id="paint3_linear_19472_8055" x1="36.3979" y1="4.70494" x2="30.7258" y2="14.501" gradientUnits="userSpaceOnUse">
<stop stop-color="#8A0304"/>
<stop offset="0.5" stop-color="#EC1C24"/>
<stop offset="1" stop-color="#F9B39A"/>
</linearGradient>
<linearGradient id="paint4_linear_19472_8055" x1="33.5675" y1="9.47598" x2="39.3401" y2="0.0851434" gradientUnits="userSpaceOnUse">
<stop stop-color="#00284E"/>
<stop offset="0.5" stop-color="#007AC1"/>
<stop offset="1" stop-color="#91C5EA"/>
</linearGradient>
<linearGradient id="paint5_linear_19472_8055" x1="41.1139" y1="0.196515" x2="48.9043" y2="8.87177" gradientUnits="userSpaceOnUse">
<stop stop-color="#00284E"/>
<stop offset="0.5" stop-color="#007AC1"/>
<stop offset="1" stop-color="#91C5EA"/>
</linearGradient>
</defs>
</svg>
