<svg viewBox="0 0 60 60" xmlns="http://www.w3.org/2000/svg"><path d="M44.215 5.609a2.695 2.695 0 0 0-1.898 1.441c-.118.233-1.367 5.629-2.985 12.89L36.55 32.43l-.076-.828c-.35-3.825-2.763-6.722-6.424-7.716-.742-.201-1.041-.218-4.122-.227l-3.323-.009-.277.277-.278.277-.027 5.948-.028 5.948-1.972.001c-2.204 0-2.92.084-3.595.42-.63.313-1.31 1.018-1.62 1.679-.251.536-.259.613-.292 2.96l-.034 2.411-1.266.059c-.696.033-1.536.132-1.866.22-1.454.388-3.008 1.677-3.688 3.06-1.278 2.594-.639 5.54 1.602 7.391.665.55 1.316.876 2.195 1.101.749.192 1.145.198 12.791.198s12.042-.006 12.791-.198c1.24-.317 2.219-.952 3.113-2.019 1.464-1.749 1.746-4.317.704-6.434-.403-.819-1.26-1.806-1.963-2.262-.272-.176-.495-.351-.495-.388 0-.037.102-.114.228-.171.404-.184.876-.643 1.088-1.059.126-.247 1.399-5.737 3.238-13.963l3.03-13.556.033 18.9.033 18.9.211.455a3.04 3.04 0 0 0 1.488 1.511c1.514.716 3.267.052 3.99-1.511l.211-.455V7.85l-.228-.463c-.858-1.742-3.09-2.271-4.594-1.088l-.262.206-.258-.247c-.546-.523-1.585-.805-2.393-.649m1.11 2.206a.824.824 0 0 1 .175.451c0 .293-7.361 33.37-7.509 33.746a.736.736 0 0 1-1.323.091c-.169-.286-.118-.53 3.536-16.922a5271.651 5271.651 0 0 1 3.805-17.005c.169-.645.904-.847 1.316-.361m4.4.186.275.302v22.255c0 16.194-.03 22.315-.112 22.474a.993.993 0 0 1-.888.564.993.993 0 0 1-.888-.564C48.03 52.873 48 46.755 48 30.57V8.327l.214-.272c.425-.54 1.048-.562 1.511-.054M29.266 25.748c2.522.477 4.66 2.644 5.126 5.195.059.327.108 1.62.108 2.875V36.1H24V25.6h2.241c1.561 0 2.479.045 3.025.148M34.5 40.85v2.75h-18v-2.155c0-2.295.029-2.46.516-2.914.129-.12.347-.264.484-.319.159-.063 3.309-.102 8.625-.106L34.5 38.1v2.75m-20.3 4.972c.627.188 1.08.467 1.595.983 1.652 1.651 1.591 4.184-.139 5.779-.75.691-1.595 1.014-2.656 1.014-1.417 0-2.614-.665-3.386-1.881-1.467-2.31-.097-5.473 2.604-6.011.489-.098 1.46-.041 1.982.116m16.36.419c-.975 1.424-1.303 3.358-.849 5.009.155.561.645 1.531.999 1.975l.299.375H17.491l.299-.375c.354-.444.844-1.414.999-1.975.454-1.651.126-3.585-.849-5.009l-.439-.641h13.498l-.439.641m5.644-.54a3.898 3.898 0 0 1 2.078 1.09c1.665 1.666 1.61 4.192-.126 5.793-.75.691-1.595 1.014-2.656 1.014-1.061 0-1.906-.323-2.656-1.014-1.736-1.601-1.791-4.127-.126-5.793.747-.746 1.369-1.004 2.843-1.178.062-.007.351.032.643.088" fill-rule="evenodd" fill="currentColor"/></svg>