<svg viewBox="0 0 60 60" xmlns="http://www.w3.org/2000/svg"><path d="M33.413 7.113a6.216 6.216 0 0 0-1.1.317c-.597.241-17.773 10.038-18.721 10.678-1.21.816-2.139 2.203-2.442 3.642-.219 1.044-.219 21.456 0 22.5.303 1.441 1.235 2.83 2.442 3.64.307.206 2.92 1.594 5.808 3.084l5.55 2.867c.165.087.414.158.553.158.154.001 4.453-2.425 10.95-6.179 5.884-3.398 11.05-6.38 11.482-6.625.473-.268.841-.552.925-.715.205-.395.203-25.604-.002-25.973-.15-.271-11.324-6.762-12.229-7.104-.985-.373-2.11-.474-3.216-.29m2.712 2.261c.699.328 9.352 5.283 9.554 5.47.118.111-5.109 3.181-18.757 11.017l-1.428.82-5.572-3.25a683.093 683.093 0 0 1-5.622-3.299c-.027-.027.052-.132.176-.232.219-.178 16.319-9.426 17.823-10.239 1.007-.544 1.495-.669 2.426-.62.59.03.924.11 1.4.333m10.871 18.651-.003 11.425-10.183 5.875c-5.6 3.231-10.212 5.875-10.247 5.875-.035 0-.052-5.135-.038-11.41l.025-11.411 10.2-5.889c5.61-3.239 10.211-5.889 10.225-5.89.014 0 .023 5.141.021 11.425M24.475 39.84c.014 6.303-.003 11.46-.037 11.46-.035 0-2.223-1.114-4.862-2.475-3.391-1.749-4.942-2.602-5.286-2.908-.328-.292-.61-.681-.863-1.195l-.377-.762V33.055c0-5.998.031-10.982.07-11.075.059-.143.98.361 5.7 3.115l5.63 3.285.025 11.46M41.65 25.689c-.968.511-1.347.767-1.486 1.001a.926.926 0 0 0 .807 1.41c.312 0 2.374-.963 2.838-1.326.736-.575.309-1.779-.629-1.772-.127 0-.815.31-1.53.687m-10 5c-.968.511-1.347.767-1.486 1.001a.926.926 0 0 0 .807 1.41c.312 0 2.374-.963 2.838-1.326.736-.575.309-1.779-.629-1.772-.127 0-.815.31-1.53.687m-15.12.431c-.224.108-.53.636-.53.915 0 .441.255.664 1.554 1.356 1.546.824 1.886.884 2.354.417.359-.36.391-.855.081-1.249-.245-.311-2.673-1.562-3.013-1.552a1.292 1.292 0 0 0-.446.113m25.12 1.569c-.968.511-1.347.767-1.486 1.001a.926.926 0 0 0 .807 1.41c.312 0 2.374-.963 2.838-1.326.736-.575.309-1.779-.629-1.772-.127 0-.815.31-1.53.687m-10 6c-.968.511-1.347.767-1.486 1.001a.926.926 0 0 0 .807 1.41c.312 0 2.374-.963 2.838-1.326.736-.575.309-1.779-.629-1.772-.127 0-.815.31-1.53.687m-15.12.431c-.224.108-.53.636-.53.915 0 .441.255.664 1.554 1.356 1.546.824 1.886.884 2.354.417.359-.36.391-.855.081-1.249-.245-.311-2.673-1.562-3.013-1.552a1.292 1.292 0 0 0-.446.113" fill-rule="evenodd" fill="currentColor"/></svg>