<svg viewBox="0 0 60 60" xmlns="http://www.w3.org/2000/svg"><path d="M14.7 14.071c-.512.187-.788.78-.599 1.287.064.17 3.089 3.274 7.278 7.467L28.548 30l-7.169 7.175c-4.254 4.258-7.214 7.295-7.279 7.471-.293.784.473 1.546 1.258 1.253.17-.064 3.274-3.089 7.467-7.278L30 31.452l7.175 7.169c4.193 4.189 7.297 7.214 7.467 7.278.785.293 1.551-.469 1.258-1.253-.065-.176-3.025-3.213-7.279-7.471L31.452 30l7.169-7.175c4.189-4.193 7.214-7.297 7.278-7.467.293-.785-.469-1.551-1.253-1.258-.176.065-3.213 3.025-7.471 7.279L30 28.548l-7.175-7.169c-3.994-3.99-7.3-7.215-7.457-7.274-.303-.113-.434-.12-.668-.034" fill-rule="evenodd" fill="currentColor"/></svg>