<svg viewBox="0 0 60 60" xmlns="http://www.w3.org/2000/svg"><path d="M14.537 6.65a9.734 9.734 0 0 0-7.434 6.227c-1.097 3.003-.626 6.453 1.236 9.062.493.691 1.69 1.865 2.401 2.354 1.089.749 2.766 1.4 4.032 1.564.503.066.536.055.875-.284.446-.446.47-.842.078-1.271-.222-.244-.465-.349-1.259-.548-2.321-.582-4.152-2.037-5.155-4.096-.609-1.249-.754-1.903-.756-3.408-.002-1.858.369-3.055 1.395-4.5 1.801-2.537 5.042-3.766 8.038-3.048 2.879.691 5.034 2.844 5.766 5.764.199.794.304 1.037.548 1.259.429.392.825.368 1.271-.078.339-.339.35-.372.284-.875-.18-1.39-.926-3.193-1.794-4.339-1.007-1.328-2.622-2.588-4.113-3.209-1.525-.635-3.738-.869-5.413-.574m27.666-.036c-1.4.232-2.962.882-4.142 1.725-.691.493-1.865 1.69-2.354 2.401-.749 1.089-1.4 2.766-1.564 4.032-.066.503-.055.536.284.875.446.446.842.47 1.271.078.244-.222.349-.465.548-1.259.583-2.325 2.034-4.149 4.107-5.162 3.419-1.67 7.507-.639 9.697 2.446 1.026 1.445 1.397 2.642 1.395 4.5-.002 1.505-.147 2.159-.756 3.408-1.003 2.059-2.834 3.514-5.155 4.096-.794.199-1.037.304-1.259.548-.392.429-.368.825.078 1.271.338.338.372.349.875.285 1.217-.156 2.976-.839 4.032-1.565.707-.486 1.907-1.661 2.393-2.343 2.453-3.437 2.432-8.141-.052-11.498-.773-1.045-1.958-2.087-3.115-2.74-1.73-.977-4.303-1.426-6.283-1.098m-26.639 8.95c-.208.207-.264.36-.264.72v.456l4.35 4.358L24 25.455v9.09l-4.35 4.357-4.35 4.358v.456c0 .639.345.984.984.984h.456l4.358-4.35L25.455 36h9.09l4.357 4.35 4.358 4.35h.451c.622 0 .989-.371.989-1.001v-.439l-4.35-4.358L36 34.545v-9.09l4.35-4.357 4.35-4.358v-.451c0-.622-.371-.989-1.001-.989h-.439l-4.358 4.35L34.545 24h-9.09l-4.357-4.35-4.358-4.35h-.456c-.36 0-.513.056-.72.264M34 30v4h-8v-8h8v4m-19.9 4.255c-.797.172-1.34.37-2.25.823-.955.475-1.455.832-2.33 1.663-1.841 1.75-2.846 3.96-2.982 6.559-.3 5.772 4.403 10.454 10.212 10.166 2.887-.143 5.538-1.557 7.313-3.899.846-1.117 1.623-2.994 1.795-4.339.064-.503.053-.537-.285-.875-.446-.446-.842-.47-1.271-.078-.244.222-.349.465-.548 1.259-.583 2.325-2.034 4.149-4.107 5.162-3.057 1.493-6.698.842-9.002-1.609-.935-.995-1.475-1.936-1.857-3.237-.306-1.043-.331-3.039-.051-4.05.769-2.778 2.902-4.845 5.729-5.554.794-.199 1.037-.304 1.259-.548.388-.425.367-.826-.065-1.258-.383-.383-.545-.402-1.56-.185m30.253.172c-.446.446-.47.842-.078 1.271.222.244.465.349 1.259.548 2.827.709 4.96 2.776 5.729 5.554.28 1.011.255 3.007-.051 4.05a7.91 7.91 0 0 1-4.081 4.887c-1.44.723-3.502.948-5.119.561-2.879-.691-5.034-2.844-5.766-5.764-.199-.794-.304-1.037-.548-1.259-.429-.392-.825-.368-1.271.078-.339.339-.35.372-.284.875.18 1.39.926 3.193 1.794 4.339 1.007 1.328 2.622 2.588 4.113 3.209 3.051 1.27 6.824.803 9.498-1.175 4.264-3.154 5.205-9.208 2.105-13.551-.486-.682-1.686-1.857-2.393-2.343-1.089-.749-2.766-1.4-4.032-1.564-.503-.066-.536-.055-.875.284" fill-rule="evenodd" fill="currentColor"/></svg>