<svg viewBox="0 0 48 48" xmlns="http://www.w3.org/2000/svg">
<path d="M24.002 2.26001C26.8567 2.26007 29.6838 2.82281 32.3213 3.91528C34.9587 5.00779 37.3554 6.60861 39.374 8.6272C41.3928 10.6459 42.9944 13.0433 44.0869 15.6809C45.1793 18.3184 45.7412 21.1455 45.7412 24.0002C45.7412 28.2999 44.4669 32.5033 42.0781 36.0784C39.6893 39.6534 36.2937 42.4397 32.3213 44.0852C28.3488 45.7307 23.9769 46.1614 19.7598 45.3225C15.5428 44.4836 11.6692 42.4126 8.62891 39.3723C5.58865 36.332 3.51855 32.4584 2.67969 28.2415C1.84088 24.0245 2.27073 19.6532 3.91602 15.6809C5.56146 11.7084 8.3487 8.31289 11.9238 5.92407C15.4989 3.53534 19.7023 2.26001 24.002 2.26001ZM30.7441 7.72095C27.5247 6.38748 23.9822 6.03924 20.5645 6.71899C17.1465 7.39887 14.0062 9.07706 11.542 11.5413C9.078 14.0054 7.39956 17.145 6.71973 20.5627C6.03996 23.9805 6.38922 27.523 7.72266 30.7424C9.05624 33.962 11.3144 36.7145 14.2119 38.6506C17.1095 40.5867 20.517 41.6204 24.002 41.6204C28.6733 41.6149 33.1519 39.7565 36.4551 36.4534C39.7582 33.1502 41.6157 28.6716 41.6211 24.0002C41.6211 20.5155 40.5883 17.1087 38.6523 14.2112C36.7162 11.3136 33.9638 9.05456 30.7441 7.72095ZM34.541 16.3801L26.9219 24.0002L34.541 31.6204L31.6211 34.5403L24.001 26.9202L16.3818 34.5403L13.4619 31.6204L21.0811 24.0002L13.4619 16.3801L16.3818 13.4602L24.001 21.0803L31.6211 13.4602L34.541 16.3801Z" fill="currentColor"/>
</svg>
