<svg viewBox="0 0 60 60" xmlns="http://www.w3.org/2000/svg"><path d="M44.55 11.615c-.11.059-2.7 2.603-5.756 5.652l-5.556 5.544-.315-.831c-.827-2.175-2.687-4.05-4.84-4.88-1.352-.522-2.214-.612-5.525-.579l-2.954.029-.277.277-.277.277-.027 5.939-.028 5.939-2.422.034c-2.382.034-2.433.039-2.993.301a3.908 3.908 0 0 0-1.763 1.763c-.262.56-.267.61-.301 2.995l-.034 2.425H10.5c-2.104 0-3.399.494-4.709 1.796-1.417 1.407-1.988 3.109-1.705 5.086.352 2.46 2.42 4.609 4.822 5.008.92.153 23.764.153 24.684 0 1.746-.29 3.488-1.627 4.289-3.29.811-1.687.811-3.513 0-5.2a6.025 6.025 0 0 0-2.781-2.776c-.467-.222-1.019-.433-1.225-.468l-.375-.065V25.449l5.675-5.671 5.675-5.672 3.331 5.214 3.331 5.214-5.096 5.108c-5.479 5.492-5.402 5.4-5.068 6.078.342.695 2.086 1.866 3.447 2.316 4.412 1.458 9.158-.853 10.672-5.198 1.042-2.991.43-6.086-1.698-8.588-.188-.22-2.017-3.032-4.066-6.25s-3.877-5.996-4.063-6.175c-.354-.341-.719-.412-1.09-.21M26.559 18.7c1.281.324 1.974.729 2.993 1.748 1.019 1.019 1.424 1.712 1.748 2.993.172.682.2 1.12.2 3.175V29H21V18.5h2.384c2.055 0 2.493.028 3.175.2m26.797 8.55c.634 1.332.793 2.83.444 4.209-.33 1.305-.82 2.175-1.748 3.104-.956.956-2.012 1.53-3.304 1.797-1.493.309-3.383-.008-4.588-.77l-.49-.309 4.54-4.542c4.123-4.124 4.553-4.525 4.676-4.365.075.097.287.491.47.876M31.5 33.75v2.75H13.49l.03-2.275c.029-2.164.041-2.29.252-2.586.476-.667-.007-.634 9.303-.637L31.5 31v2.75m-20.461 4.901c1.937.505 3.23 2.514 2.891 4.493-.15.876-.476 1.496-1.133 2.153-.959.959-2.157 1.353-3.441 1.133-.876-.15-1.496-.476-2.153-1.133S6.22 44.02 6.07 43.144c-.485-2.832 2.161-5.224 4.969-4.493m16.613.333a6.002 6.002 0 0 0-.003 7.028L28 46.5H14.5l.351-.488a6.038 6.038 0 0 0 0-7.024L14.5 38.5H28l-.348.484m5.887-.333c1.937.505 3.23 2.514 2.891 4.493-.15.876-.476 1.496-1.133 2.153-.959.959-2.157 1.353-3.441 1.133-.876-.15-1.496-.476-2.153-1.133s-.983-1.277-1.133-2.153c-.485-2.832 2.161-5.224 4.969-4.493" fill-rule="evenodd" fill="currentColor"/></svg>