<svg viewBox="0 0 60 60" xmlns="http://www.w3.org/2000/svg"><path d="M16.95 6.064c-2.308.197-3.748.727-4.781 1.758-.6.599-.979 1.401-1.362 2.878-.164.633-2.013 9.385-4.11 19.45C3.078 47.52 2.886 48.493 2.924 49.3c.031.663.1.975.313 1.419.553 1.158 1.503 1.908 2.743 2.169.722.153 46.775.158 47.72.006 1.638-.263 2.723-1.157 3.141-2.587.366-1.253.406-.996-3.139-20.609-1.813-10.036-3.412-18.675-3.553-19.198-.351-1.302-.748-2.109-1.318-2.678-.805-.803-1.779-1.27-3.331-1.597-.659-.138-2.405-.16-14.45-.176-7.535-.011-13.88-.004-14.1.015M45.517 8.27c1.556.441 2.155.945 2.521 2.123.4 1.285.472 1.669 3.776 19.957C53.8 41.344 55.03 48.399 55.033 48.8c.007 1.233-.445 1.885-1.452 2.093-.378.078-7.261.102-23.931.083-22.787-.025-23.41-.031-23.784-.217-.543-.269-.895-.844-.945-1.543-.033-.46.646-3.865 3.624-18.166 4.097-19.676 4.083-19.606 4.414-20.657.435-1.381 1.455-2.044 3.522-2.29.368-.044 6.879-.073 14.469-.065l13.8.015.767.217m-28.064 7.803c-.345.088-.863.495-1.137.893l-.266.384v5.3l.266.384c.146.212.438.504.65.65l.384.266h26.3l.384-.266c.212-.146.504-.438.65-.65l.266-.384v-5.3l-.266-.384a3.035 3.035 0 0 0-.65-.65l-.384-.266-13-.014c-7.15-.008-13.089.009-13.197.037M43 20v2H18v-4h25v2m-3.322 12.153c-1.618.321-3.279 1.649-4.065 3.247-1.129 2.297-.668 4.966 1.176 6.811 1.398 1.398 3.141 1.982 5.086 1.704 2.578-.369 4.671-2.462 5.04-5.04.278-1.945-.306-3.688-1.704-5.086-1.494-1.494-3.407-2.06-5.533-1.636m-22.978.914c-1.028.401-.79 1.929.3 1.929.872 0 1.303-1.082.669-1.678-.241-.227-.717-.35-.969-.251m10 0c-1.028.401-.79 1.929.3 1.929.872 0 1.303-1.082.669-1.678-.241-.227-.717-.35-.969-.251m15.339 1.084c1.937.505 3.23 2.514 2.891 4.493-.15.876-.476 1.496-1.133 2.153-.959.959-2.157 1.353-3.441 1.133-.876-.15-1.496-.476-2.153-1.133s-.983-1.277-1.133-2.153c-.485-2.832 2.161-5.224 4.969-4.493M16.7 40.567c-1.028.401-.79 1.929.3 1.929.872 0 1.303-1.082.669-1.678-.241-.227-.717-.35-.969-.251m10 0c-1.028.401-.79 1.929.3 1.929.872 0 1.303-1.082.669-1.678-.241-.227-.717-.35-.969-.251" fill-rule="evenodd" fill="currentColor"/></svg>