<svg viewBox="0 0 16 16" xmlns="http://www.w3.org/2000/svg">
<path d="M9.64001 9.55002L8.72001 12.34C7.55107 12.1751 6.45778 11.6656 5.57969 10.8766C4.7016 10.0875 4.07853 9.05474 3.79001 7.91002L6.38001 6.91002V2.77002H3.27001C2.41444 4.1626 2.05308 5.80286 2.24425 7.42604C2.43543 9.04923 3.16798 10.5606 4.32368 11.7163C5.47938 12.872 6.9908 13.6046 8.61398 13.7958C10.2372 13.9869 11.8774 13.6256 13.27 12.77V9.55002H9.64001ZM3.64001 6.46002C3.64142 5.65147 3.80817 4.85176 4.13001 4.11002H5.00001V6.00002L3.60001 6.54002L3.64001 6.46002ZM11.94 11.91C11.3726 12.1485 10.7726 12.3002 10.16 12.36L10.65 10.89H11.9L11.94 11.91Z" fill="currentColor"/>
</svg>
