<svg xmlns="http://www.w3.org/2000/svg"><path d="M27.55 9.114c-2.325.296-4.596 1.424-6.304 3.132a10.943 10.943 0 0 0 0 15.508 10.949 10.949 0 0 0 15.508 0 10.949 10.949 0 0 0 0-15.508c-2.425-2.426-5.779-3.567-9.204-3.132m3.75 2.183c2.481.696 4.587 2.416 5.698 4.653.768 1.549.947 2.314.947 4.05 0 1.735-.179 2.5-.947 4.05-1.119 2.254-3.21 3.953-5.748 4.67-1.156.326-3.348.325-4.5-.002-3.139-.892-5.465-3.167-6.412-6.273-.247-.81-.273-1.042-.273-2.445 0-1.403.026-1.635.273-2.445 1.035-3.395 3.756-5.826 7.228-6.457.818-.149 2.889-.038 3.734.199m-3.554 1.304c-2.819.511-5.107 2.534-5.934 5.248-.207.68-.244 1.005-.244 2.151s.037 1.471.244 2.151a7.65 7.65 0 0 0 5.037 5.037c.68.207 1.005.244 2.151.244s1.471-.037 2.151-.244a7.65 7.65 0 0 0 5.037-5.037c.207-.68.244-1.005.244-2.151s-.037-1.471-.244-2.151c-.729-2.391-2.679-4.338-5.037-5.027-.902-.264-2.571-.372-3.405-.221m2.53 2.05c.988.232 1.793.696 2.585 1.488 1.095 1.095 1.636 2.372 1.636 3.861 0 1.489-.541 2.766-1.636 3.861-1.095 1.095-2.372 1.636-3.861 1.636-1.489 0-2.766-.541-3.861-1.636-2.203-2.203-2.203-5.519 0-7.722 1.399-1.399 3.246-1.934 5.137-1.488M15.55 29.114c-2.325.296-4.596 1.424-6.304 3.132a10.943 10.943 0 0 0 0 15.508c3.712 3.713 9.455 4.279 13.854 1.367 4.41-2.919 6.081-8.68 3.935-13.571-1.937-4.413-6.644-7.051-11.485-6.436m25 0c-2.325.296-4.596 1.424-6.304 3.132a10.943 10.943 0 0 0 0 15.508c3.712 3.713 9.455 4.279 13.854 1.367 4.41-2.919 6.081-8.68 3.935-13.571-1.937-4.413-6.644-7.051-11.485-6.436M19.3 31.297c2.481.696 4.587 2.416 5.698 4.653.768 1.549.947 2.314.947 4.05 0 1.735-.179 2.5-.947 4.05-1.119 2.254-3.21 3.953-5.748 4.67-1.156.326-3.348.325-4.5-.002-3.139-.892-5.465-3.167-6.412-6.273-.247-.81-.273-1.042-.273-2.445 0-1.403.026-1.635.273-2.445 1.035-3.395 3.756-5.826 7.228-6.457.818-.149 2.889-.038 3.734.199m25 0c2.481.696 4.587 2.416 5.698 4.653.768 1.549.947 2.314.947 4.05 0 1.735-.179 2.5-.947 4.05-1.119 2.254-3.21 3.953-5.748 4.67-1.156.326-3.348.325-4.5-.002-3.139-.892-5.465-3.167-6.412-6.273-.247-.81-.273-1.042-.273-2.445 0-1.403.026-1.635.273-2.445 1.035-3.395 3.756-5.826 7.228-6.457.818-.149 2.889-.038 3.734.199m-28.05 1.259c-.11.025-.447.095-.75.155-.746.148-2.071.778-2.773 1.318-1.439 1.107-2.434 2.64-2.779 4.279-.19.903-.19 2.481 0 3.384.467 2.219 2.066 4.143 4.285 5.155 1.047.479 1.664.602 3.017.602s1.97-.123 3.017-.602c2.215-1.011 3.764-2.866 4.271-5.117.339-1.506.156-3.474-.448-4.815-.892-1.978-2.791-3.593-4.913-4.177-.525-.145-2.546-.271-2.927-.182m24.5 0c-.11.025-.447.095-.75.155-1.196.237-2.826 1.193-3.753 2.201C34.915 36.359 34.3 37.966 34.3 40c0 1.708.41 3.038 1.336 4.335.78 1.092 1.802 1.921 3.097 2.512 1.047.479 1.664.602 3.017.602s1.97-.123 3.017-.602c2.215-1.011 3.764-2.866 4.271-5.117.203-.9.209-2.493.014-3.422-.543-2.578-2.725-4.84-5.375-5.57-.525-.145-2.546-.271-2.927-.182m-21.73 2.23a5.628 5.628 0 0 1 3.533 3.756c.224.775.224 2.141 0 2.916a5.708 5.708 0 0 1-3.653 3.804c-.404.137-.841.186-1.65.186-1.662 0-2.754-.446-3.896-1.593-1.05-1.053-1.578-2.342-1.578-3.855s.528-2.802 1.578-3.855a5.63 5.63 0 0 1 2.946-1.583c.549-.106 2.157.026 2.72.224m24.5 0a5.628 5.628 0 0 1 3.533 3.756c.224.775.224 2.141 0 2.916a5.708 5.708 0 0 1-3.653 3.804c-.404.137-.841.186-1.65.186-1.662 0-2.754-.446-3.896-1.593-1.05-1.053-1.578-2.342-1.578-3.855s.528-2.802 1.578-3.855a5.63 5.63 0 0 1 2.946-1.583c.549-.106 2.157.026 2.72.224" fill-rule="evenodd" fill="currentColor"/></svg>