<svg viewBox="0 0 60 60" xmlns="http://www.w3.org/2000/svg"><path d="M12.678 8.151c-1.625.328-3.284 1.655-4.062 3.249-.526 1.079-.639 1.817-.598 3.893.032 1.597.033 1.604.307 1.878a.937.937 0 0 0 1.35 0l.275-.275.06-1.923c.072-2.271.134-2.501.956-3.536.35-.441 1.159-1.02 1.734-1.241.254-.097 1.223-.149 3.523-.19l3.173-.056.275-.275a.937.937 0 0 0 0-1.35l-.275-.275-3.023-.018c-2.212-.013-3.203.019-3.695.119m27.972-.056a.972.972 0 0 0-.321 1.58l.275.275 3.173.056c3.225.057 3.478.086 4.123.479.853.52 1.589 1.379 1.899 2.215.08.215.153 1.09.191 2.273l.06 1.923.275.275a.937.937 0 0 0 1.35 0c.273-.273.275-.285.309-1.848.042-2.015-.083-2.83-.606-3.923-.794-1.661-2.538-2.999-4.286-3.29-.76-.127-6.139-.139-6.442-.015M27.155 24.309c-5.914 2.222-10.189 3.882-10.32 4.005-.303.285-.377.692-.203 1.109.14.334.274.4 4.431 2.176 2.358 1.007 4.336 1.881 4.397 1.941.06.061.905 1.978 1.878 4.26 1.849 4.343 2.048 4.7 2.619 4.7.544 0 .811-.254 1.126-1.074.165-.427 1.887-5.006 3.828-10.176 2.346-6.25 3.529-9.529 3.531-9.785.003-.311-.06-.442-.321-.675-.199-.178-.43-.287-.598-.283-.15.004-4.816 1.715-10.368 3.802m8.353-.334c-.227.613-5.216 13.911-5.501 14.665-.053.137-.457-.71-1.482-3.1-.776-1.81-1.492-3.372-1.592-3.473-.101-.1-1.665-.817-3.476-1.593-1.811-.777-3.251-1.427-3.2-1.444.051-.018 3.558-1.335 7.793-2.927a5599.75 5599.75 0 0 1 7.722-2.899c.013-.002-.106.345-.264.771M8.65 42.591a1.43 1.43 0 0 0-.4.307c-.178.199-.204.391-.234 1.787-.043 2.007.084 2.823.606 3.915.816 1.708 2.559 3.021 4.378 3.299.475.073 1.784.103 3.573.083l2.823-.032.275-.275a.937.937 0 0 0 0-1.35l-.275-.275-3.173-.056c-2.3-.041-3.269-.093-3.523-.19-.575-.221-1.384-.8-1.734-1.241-.822-1.035-.884-1.265-.956-3.536-.059-1.88-.066-1.928-.31-2.172-.278-.278-.744-.395-1.05-.264m42 0a1.43 1.43 0 0 0-.4.307c-.181.201-.205.406-.253 2.137-.051 1.821-.067 1.944-.328 2.508-.361.779-.843 1.355-1.491 1.78-.923.605-.956.61-4.401.671l-3.173.056-.275.275a.937.937 0 0 0 0 1.35l.275.275 2.823.032c1.789.02 3.098-.01 3.573-.083 1.819-.278 3.562-1.591 4.378-3.299.523-1.093.648-1.908.606-3.923-.033-1.524-.042-1.581-.284-1.823-.278-.277-.744-.394-1.05-.263" fill-rule="evenodd" fill="currentColor"/></svg>