<svg viewBox="0 0 60 60" xmlns="http://www.w3.org/2000/svg"><path d="M13.678 9.151c-1.625.328-3.284 1.655-4.062 3.249-.526 1.079-.639 1.817-.598 3.893.032 1.597.033 1.604.307 1.878a.937.937 0 0 0 1.35 0l.275-.275.06-1.923c.072-2.271.134-2.501.956-3.536.35-.441 1.159-1.02 1.734-1.241.254-.097 1.223-.149 3.523-.19l3.173-.056.275-.275a.937.937 0 0 0 0-1.35l-.275-.275-3.023-.018c-2.212-.013-3.203.019-3.695.119m25.972-.056a.972.972 0 0 0-.321 1.58l.275.275 3.173.056c3.225.057 3.478.086 4.123.479.853.52 1.589 1.379 1.899 2.215.08.215.153 1.09.191 2.273l.06 1.923.275.275a.937.937 0 0 0 1.35 0c.273-.273.275-.285.309-1.848.042-2.015-.083-2.83-.606-3.923-.794-1.661-2.538-2.999-4.286-3.29-.76-.127-6.139-.139-6.442-.015m-24 7.998c-.11.046-.29.183-.4.306-.194.216-.2.363-.2 5.109v4.887l.277.278.278.277h9.79l.278-.277.277-.278v-9.79l-.277-.278-.277-.277-4.773-.02c-2.625-.011-4.863.017-4.973.063m18 0c-.11.046-.29.183-.4.306-.194.216-.2.363-.2 5.109v4.887l.277.278.278.277h9.79l.278-.277.277-.278v-9.79l-.277-.278-.277-.277-4.773-.02c-2.625-.011-4.863.017-4.973.063M24 22.5V26h-7v-7h7v3.5m18 0V26h-7v-7h7v3.5M15.65 33.093c-.11.046-.29.183-.4.306-.194.216-.2.363-.2 5.109v4.887l.277.278.278.277h9.79l.278-.277.277-.278v-9.79l-.277-.278-.277-.277-4.773-.02c-2.625-.011-4.863.017-4.973.063m18-.002c-.11.047-.29.185-.4.308-.185.205-.2.363-.2 2.109v1.887l.277.278.278.277h3.79l.278-.277.277-.278v-3.79l-.277-.278-.277-.277-1.773-.022c-.975-.012-1.863.017-1.973.063m6 0c-.11.047-.29.185-.4.308-.185.205-.2.363-.2 2.109v1.887l.277.278.278.277h3.79l.278-.277.277-.278v-3.79l-.277-.278-.277-.277-1.773-.022c-.975-.012-1.863.017-1.973.063M24 38.5V42h-7v-7h7v3.5m12-3v.5h-1v-1h1v.5m6 0v.5h-1v-1h1v.5m-8.35 3.591c-.11.047-.29.185-.4.308-.185.205-.2.363-.2 2.109v1.887l.277.278.278.277h3.79l.278-.277.277-.278v-3.79l-.277-.278-.277-.277-1.773-.022c-.975-.012-1.863.017-1.973.063M36 41.5v.5h-1v-1h1v.5m-26.35.091a1.43 1.43 0 0 0-.4.307c-.178.199-.204.391-.234 1.787-.043 2.007.084 2.823.606 3.915.816 1.708 2.559 3.021 4.378 3.299.475.073 1.784.103 3.573.083l2.823-.032.275-.275a.937.937 0 0 0 0-1.35l-.275-.275-3.173-.056c-2.3-.041-3.269-.093-3.523-.19-.575-.221-1.384-.8-1.734-1.241-.822-1.035-.884-1.265-.956-3.536-.059-1.88-.066-1.928-.31-2.172-.278-.278-.744-.395-1.05-.264m40 0a1.43 1.43 0 0 0-.4.307c-.18.201-.206.412-.26 2.137-.072 2.262-.135 2.494-.956 3.528-.35.441-1.159 1.02-1.734 1.241-.254.097-1.223.149-3.523.19l-3.173.056-.275.275a.937.937 0 0 0 0 1.35l.275.275 2.823.032c1.789.02 3.098-.01 3.573-.083 1.819-.278 3.562-1.591 4.378-3.299.523-1.093.648-1.908.606-3.923-.033-1.524-.042-1.581-.284-1.823-.278-.277-.744-.394-1.05-.263" fill-rule="evenodd" fill="currentColor"/></svg>