<svg viewBox="0 0 32 32" xmlns="http://www.w3.org/2000/svg">
<path d="M15.9998 1.50659C17.9031 1.50659 19.7883 1.88175 21.5467 2.61011C23.3049 3.33843 24.9022 4.40606 26.2479 5.75171C27.5937 7.09754 28.6621 8.69545 29.3904 10.4539C30.1187 12.2121 30.493 14.0967 30.493 15.9998C30.493 18.8662 29.643 21.6682 28.0506 24.0515C26.4581 26.4349 24.1949 28.2934 21.5467 29.3904C18.8984 30.4873 15.9841 30.7738 13.1727 30.2146C10.3612 29.6554 7.7787 28.2747 5.75177 26.2478C3.72503 24.221 2.34424 21.6391 1.78497 18.8279C1.22576 16.0165 1.51325 13.1021 2.61017 10.4539C3.70713 7.80555 5.56464 5.54152 7.94806 3.94897C10.3314 2.35653 13.1334 1.50663 15.9998 1.50659ZM20.4949 5.14722C18.3487 4.25831 15.9872 4.02613 13.7088 4.47925C11.4302 4.9325 9.33695 6.05129 7.69415 7.69409C6.05135 9.33689 4.93256 11.4301 4.47931 13.7087C4.02619 15.9871 4.25837 18.3487 5.14728 20.4949C6.03634 22.6413 7.54178 24.4766 9.47345 25.7673C11.4051 27.058 13.6766 27.7468 15.9998 27.7468C19.1141 27.7433 22.1004 26.5047 24.3026 24.3025C26.5047 22.1003 27.7434 19.1141 27.7469 15.9998C27.7469 13.6765 27.0581 11.4051 25.7674 9.47339C24.4767 7.54171 22.6413 6.03628 20.4949 5.14722ZM21.4402 15.9871L14.3201 23.0935L12.3738 21.1599L17.5467 15.9871L12.4129 10.8396L14.3602 8.90698L21.4402 15.9871Z" fill="currentColor"/>
</svg>
