<svg viewBox="0 0 34 34" xmlns="http://www.w3.org/2000/svg">
<path d="M17 2C25.2843 2 32 8.71573 32 17C32 25.2843 25.2843 32 17 32C8.71573 32 2 25.2843 2 17C2 8.71573 8.71573 2 17 2ZM17 0C7.61116 3.2215e-08 3.22129e-08 7.61116 0 17C0 26.3888 7.61116 34 17 34C26.3888 34 34 26.3888 34 17C34 7.61116 26.3888 0 17 0Z" fill="currentColor"/>
<path d="M21.3873 17.2805C21.6704 16.939 21.6687 16.4438 21.3873 16.1027L21.3228 16.0314L21.3218 16.0305L15.5748 10.3918L15.5044 10.3283C15.138 10.0334 14.5983 10.0553 14.2564 10.3918C13.8857 10.7556 13.8846 11.3484 14.2554 11.7121L19.3287 16.6916L14.2554 21.6711L14.2564 21.6721C13.9032 22.0174 13.8877 22.5693 14.2037 22.9348L13.9996 23.135H14.4458C14.5624 23.202 14.6904 23.2435 14.8238 23.2561L14.9146 23.26L15.0054 23.2561C15.2158 23.2364 15.4144 23.1477 15.5728 22.9934L16.4537 22.135H16.4468L21.3218 17.3518L21.3873 17.2805Z" fill="currentColor"/>
</svg>
