<svg xmlns="http://www.w3.org/2000/svg"><path d="M19.474 11.676c-.153.095-.341.349-.423.573-.206.56-9.957 34.729-10.021 35.116-.094.559.406 1.135.984 1.135.371 0 .78-.327.934-.747.206-.561 9.958-34.73 10.022-35.118.095-.567-.411-1.139-1-1.132-.121.001-.344.079-.496.173m20.068-.062c-.322.157-.573.657-.512 1.021.064.388 9.816 34.557 10.022 35.118.154.42.563.747.934.747.578 0 1.078-.576.984-1.135-.064-.388-9.816-34.557-10.022-35.118-.228-.622-.851-.902-1.406-.633m-9.892 2.477c-.11.047-.29.185-.4.308-.19.211-.2.363-.2 3.109v2.887l.275.275a.935.935 0 0 0 1.35 0l.275-.275v-5.79l-.25-.25c-.278-.278-.744-.395-1.05-.264m0 12.5c-.11.047-.29.185-.4.308-.19.211-.2.363-.2 3.109v2.887l.275.275a.935.935 0 0 0 1.35 0l.275-.275v-5.79l-.25-.25c-.278-.278-.744-.395-1.05-.264m0 12.5c-.11.047-.29.185-.4.308-.19.211-.2.363-.2 3.109v2.887l.275.275a.935.935 0 0 0 1.35 0l.275-.275v-5.79l-.25-.25c-.278-.278-.744-.395-1.05-.264" fill-rule="evenodd" fill="currentColor"/></svg>