<svg viewBox="0 0 60 60" xmlns="http://www.w3.org/2000/svg"><path d="M10.826 6.113c-.179.051-.395.199-.48.328-.171.263-1.004 4.68-1.388 7.371-.363 2.539-.457 3.794-.457 6.088.001 3.61.325 5.658 1.659 10.5.287 1.042 1.277 3.311 3.402 7.793 1.098 2.318 3.007 4.697 4.988 6.219 1.654 1.27 4.572 2.887 7.2 3.99 1.235.519 2.936 1.362 3.595 1.782.678.434.97.411 1.81-.142 1.41-.928 2.122-1.271 6.095-2.938 3.731-1.565 6.943-4.396 8.934-7.876.503-.878.721-1.362 2.225-4.923l.736-1.744.167.549c.613 2.011.875 4.536.699 6.719-.21 2.597-.576 4.297-2.004 9.297-.499 1.747-.907 3.314-.907 3.483 0 .422.475.891.902.891.507 0 .876-.282 1.043-.796.081-.25.437-1.466.793-2.704 1.859-6.474 2.221-8.535 2.136-12.151-.053-2.291-.182-3.212-.727-5.204-.419-1.528-.86-2.653-1.901-4.845a81.003 81.003 0 0 1-1.448-3.25c-1.581-3.843-2.836-5.826-4.974-7.861-1.722-1.639-3.095-2.533-5.796-3.776-.947-.436-2.826-1.36-4.176-2.053-1.702-.874-2.557-1.26-2.789-1.26-.236 0-1.498.585-4.274 1.982-6.354 3.196-8.143 4.395-10.018 6.717-1.302 1.611-1.929 2.731-3.773 6.729-.401.869-.76 1.599-.8 1.623-.092.057-.453-1.782-.638-3.251-.491-3.906-.19-7.545 1.239-15 .269-1.406.261-1.633-.074-1.991-.328-.35-.565-.42-.999-.296m21.61 6.726c1.218.626 2.934 1.467 3.814 1.87 2.58 1.18 3.937 2.084 5.547 3.694 1.872 1.872 2.743 3.281 4.235 6.852.413.987 1.024 2.44 1.359 3.227.335.788.609 1.49.609 1.561 0 .115-1.799 4.423-2.778 6.654-1.552 3.534-4.512 6.584-7.972 8.212a74.72 74.72 0 0 1-2.369 1.03c-1.7.708-3.05 1.359-4.095 1.978l-.663.392-.937-.499a44.276 44.276 0 0 0-2.536-1.193c-5.169-2.243-7.644-3.959-9.761-6.767-.882-1.169-1.202-1.782-3.216-6.15-1.087-2.359-1.523-3.576-1.436-4.011.033-.163.425-1.093.872-2.067.447-.975 1.149-2.514 1.56-3.422 1.56-3.441 3.251-5.65 5.481-7.16 1.46-.989 3.501-2.158 5-2.863a94.927 94.927 0 0 0 3.1-1.556c.935-.492 1.761-.901 1.836-.908.075-.007 1.133.499 2.35 1.126m-4.133 8.911c-3.248.734-5.809 3.34-6.465 6.579-.227 1.123-.149 3.145.161 4.121.726 2.295 2.267 4.117 4.351 5.146 1.27.628 1.93.802 3.3.872 2.58.132 4.603-.631 6.41-2.418 1.839-1.818 2.627-3.824 2.512-6.393-.066-1.455-.305-2.369-.929-3.545-1.093-2.06-2.811-3.481-5.096-4.214-.908-.292-3.248-.373-4.244-.148m3.52 2.005c1.076.278 1.94.799 2.887 1.74 1.348 1.342 1.89 2.646 1.89 4.553 0 1.864-.571 3.24-1.891 4.561-1.321 1.32-2.697 1.891-4.561 1.891-1.902 0-3.197-.538-4.551-1.891-1.548-1.547-2.179-3.35-1.896-5.416.205-1.496.782-2.654 1.86-3.732 1.683-1.684 3.952-2.302 6.262-1.706" fill-rule="evenodd" fill="currentColor"/></svg>