<svg viewBox="0 0 48 48" xmlns="http://www.w3.org/2000/svg">
<path d="M24.0017 2.26001C19.702 2.26001 15.4988 3.53504 11.9236 5.92386C8.34851 8.31268 5.56204 11.708 3.91659 15.6805C2.27114 19.6529 1.84061 24.0241 2.67946 28.2413C3.5183 32.4584 5.58883 36.3321 8.62923 39.3725C11.6696 42.4129 15.5433 44.4834 19.7605 45.3223C23.9776 46.1611 28.3488 45.7306 32.3213 44.0852C36.2937 42.4397 39.6891 39.6532 42.0779 36.0781C44.4667 32.503 45.7417 28.2998 45.7417 24C45.7417 21.1451 45.1794 18.3181 44.0869 15.6805C42.9943 13.0429 41.393 10.6463 39.3742 8.62751C37.3555 6.60876 34.9589 5.00741 32.3213 3.91487C29.6836 2.82233 26.8567 2.26001 24.0017 2.26001ZM24.0017 41.62C20.5168 41.62 17.1102 40.5866 14.2126 38.6505C11.315 36.7144 9.05659 33.9625 7.72297 30.7429C6.38935 27.5233 6.04042 23.9805 6.72029 20.5625C7.40016 17.1446 9.07831 14.005 11.5425 11.5408C14.0067 9.07659 17.1463 7.39845 20.5642 6.71857C23.9822 6.0387 27.525 6.38764 30.7446 7.72125C33.9642 9.05487 36.7161 11.3133 38.6522 14.2109C40.5883 17.1085 41.6217 20.5151 41.6217 24C41.6164 28.6715 39.7584 33.1501 36.4551 36.4534C33.1519 39.7566 28.6732 41.6147 24.0017 41.62Z" fill="currentColor"/>
<path d="M21.4197 27.74L15.6997 21.62L12.6797 24.42L21.2997 33.66L35.8397 19.18L32.9397 16.26L21.4197 27.74Z" fill="currentColor"/>
</svg>
