<svg viewBox="0 0 24 24" xmlns="http://www.w3.org/2000/svg">
<path d="M22.1201 14.7597V21.8397H20.0596V16.8202H3.93945V21.8397H1.87988V14.7597H22.1201ZM9.86816 1.5536C10.8859 1.13202 12.0064 1.02228 13.0869 1.2372C14.1673 1.45216 15.1596 1.98272 15.9385 2.76161C16.7174 3.54054 17.248 4.5328 17.4629 5.61317C17.6778 6.69365 17.5671 7.81414 17.1455 8.83192C16.724 9.84938 16.0104 10.719 15.0947 11.3309C14.1788 11.943 13.1016 12.2704 12 12.2704C10.5236 12.2678 9.10845 11.6796 8.06445 10.6356C7.02047 9.59165 6.43235 8.1765 6.42969 6.70009C6.42969 5.5985 6.75619 4.52131 7.36816 3.60536C7.98019 2.6894 8.8504 1.97519 9.86816 1.5536ZM12 3.19032C11.0691 3.19032 10.1758 3.55941 9.51758 4.21767C8.85933 4.87592 8.49023 5.76918 8.49023 6.70009C8.49025 7.39426 8.6954 8.0731 9.08105 8.65028C9.46669 9.22743 10.015 9.67758 10.6562 9.94325C11.2976 10.2089 12.0037 10.2779 12.6846 10.1425C13.3654 10.007 13.9906 9.67241 14.4814 9.18153C14.9723 8.69065 15.3069 8.06553 15.4424 7.38466C15.5778 6.70381 15.5088 5.99768 15.2432 5.35634C14.9775 4.71507 14.5273 4.16678 13.9502 3.78114C13.373 3.39549 12.6942 3.19034 12 3.19032Z" fill="currentColor"/>
</svg>
