<svg viewBox="0 0 60 60" xmlns="http://www.w3.org/2000/svg"><path d="m15.65 9.061-.75.151c-2.054.41-4.254 2.235-5.194 4.309C9 15.078 9.05 13.779 9.05 30.5c0 14.274.009 15.083.183 15.694.676 2.383 2.403 4.369 4.565 5.247 1.351.549 1.507.559 9.058.559h6.964l.34-.34c.438-.438.453-.83.048-1.283l-.291-.327-7.184-.052c-7.872-.058-7.621-.038-8.733-.671-1.218-.694-2.309-2.038-2.724-3.359l-.226-.718v-29.5l.228-.725c.601-1.912 2.302-3.477 4.222-3.884.963-.204 28.037-.204 29 0 1.889.401 3.578 1.934 4.22 3.831l.229.678.051 9.1c.027 5.005.089 9.18.137 9.279.113.231.58.471.918.471.168 0 .389-.124.605-.34l.34-.34-.001-8.835c0-5.687-.038-9.067-.106-9.485-.403-2.5-2.091-4.714-4.427-5.807-1.467-.687-.203-.636-16.166-.655-7.947-.009-14.54.001-14.65.023m13.456 6.048c-1.16.227-2.887 1.422-3.059 2.116-.181.729.479 1.422 1.178 1.237.124-.033.51-.303.857-.6.715-.61 1.253-.812 2.168-.812 1.084 0 1.474.183 2.544 1.192.583.551 1.184 1.016 1.526 1.182 2.059 1.001 4.453.672 5.998-.824.575-.557.75-.916.647-1.327-.128-.507-.705-.864-1.19-.735-.124.033-.505.299-.848.592-.983.84-2.033 1.067-3.216.695-.452-.142-.733-.341-1.502-1.064-1.617-1.519-3.188-2.027-5.103-1.652m-9.176 7.087c-.428.261-.498.587-.567 2.654-.152 4.504-1.253 10.63-3.02 16.797-.393 1.372-.403 1.471-.176 1.854.444.752 1.467.61 1.78-.248.219-.599.803-2.743 1.363-5.003 1.144-4.617 1.894-9.299 2.056-12.825L21.431 24H29.77l.06 2.825c.039 1.783.12 3.212.221 3.875.228 1.493.94 5.07 1.063 5.34.131.288.586.56.936.56.354 0 .95-.586.95-.934 0-.139-.066-.538-.146-.885-.235-1.012-.828-4.37-.902-5.106L31.884 29H39v2.595c0 2.801.034 3.014.515 3.262.449.233.771.177 1.145-.197l.34-.34v-6.705l-.308-.307-.307-.308H31.8l-.002-2.175c-.003-2.343-.022-2.435-.566-2.713-.153-.078-1.833-.112-5.6-.112-5.16.001-5.395.009-5.702.196m18.762 17.987c-1.678.438-3.097 1.875-3.543 3.586-.121.466-.149 1.398-.149 4.997 0 4.753.008 4.829.515 5.091.449.233.771.177 1.145-.197l.34-.34V50h6v1.595c0 1.74.066 2.031.515 2.262.449.233.771.177 1.145-.197l.34-.34v-4.396c0-2.573-.042-4.62-.102-4.935-.331-1.744-1.846-3.35-3.59-3.806A6.275 6.275 0 0 0 40 40.012c-.357 0-.946.077-1.308.171m10.846-.029c-.171.087-.362.27-.425.407-.165.363-.159 12.528.006 12.892.066.144.244.326.396.404.449.233.771.177 1.145-.197l.34-.34V40.703l-.275-.302c-.336-.369-.768-.459-1.187-.247m-8.289 2.135c.559.247 1.215.909 1.484 1.496.188.41.217.686.249 2.34L43.019 48H37v-1.595c0-1.861.101-2.439.534-3.067a3.027 3.027 0 0 1 3.715-1.049" fill-rule="evenodd" fill="currentColor"/></svg>