<svg xmlns="http://www.w3.org/2000/svg"><path d="M18.65 14.09a1.44 1.44 0 0 0-.4.309c-.195.216-.201.383-.227 6.152l-.028 5.931-2.422.034c-2.382.034-2.433.039-2.993.301a3.908 3.908 0 0 0-1.763 1.763c-.262.56-.267.61-.301 2.995L10.482 34H9.5c-2.104 0-3.399.494-4.709 1.796-1.417 1.407-1.988 3.109-1.705 5.086.352 2.46 2.42 4.609 4.822 5.008.92.153 23.764.153 24.684 0 2.007-.334 3.89-1.977 4.61-4.021l.183-.519 4.605-.05 4.606-.05.238-.25c.251-.263 8.363-11.704 8.637-12.182.349-.609-.123-1.418-.827-1.418-.181 0-2.918.9-6.082 2l-5.752 2H32.512l-.036-5.125c-.033-4.936-.043-5.155-.257-5.925a8.72 8.72 0 0 0-6.069-6.065c-.734-.202-1.068-.223-4.05-.251-1.787-.016-3.34.009-3.45.056m6.909 2.11c1.281.324 1.974.729 2.993 1.748 1.019 1.019 1.424 1.712 1.748 2.993.172.682.2 1.12.2 3.175V26.5H20V16h2.384c2.055 0 2.493.028 3.175.2M30.5 31.25V34H12.49l.03-2.275c.029-2.164.041-2.29.252-2.586.476-.667-.007-.634 9.303-.637L30.5 28.5v2.75m21.338-.725c-.041.069-1.469 2.094-3.173 4.501l-3.1 4.376-4.052-.026-4.053-.026-.112-.619c-.297-1.645-1.639-3.342-3.248-4.107-.467-.222-1.019-.433-1.225-.468-.359-.062-.375-.082-.375-.461V33.3l5.475-.001h5.475l4.1-1.44c2.255-.791 4.159-1.444 4.231-1.449.078-.006.101.04.057.115m-41.799 5.626c1.937.505 3.23 2.514 2.891 4.493-.15.876-.476 1.496-1.133 2.153-.959.959-2.157 1.353-3.441 1.133-.876-.15-1.496-.476-2.153-1.133S5.22 41.52 5.07 40.644c-.485-2.832 2.161-5.224 4.969-4.493m16.613.333a6.012 6.012 0 0 0-.003 7.028L27 44H13.5l.351-.488a6.038 6.038 0 0 0 0-7.024L13.5 36H27l-.348.484m5.887-.333c1.937.505 3.23 2.514 2.891 4.493-.15.876-.476 1.496-1.133 2.153-.959.959-2.157 1.353-3.441 1.133-.876-.15-1.496-.476-2.153-1.133s-.983-1.277-1.133-2.153c-.485-2.832 2.161-5.224 4.969-4.493" fill-rule="evenodd" fill="currentColor"/></svg>