<svg viewBox="0 0 60 60" xmlns="http://www.w3.org/2000/svg"><path d="M36.65 8.057c-.165.023-.705.091-1.2.151-5.343.652-10.586 3.69-13.87 8.037-.557.737-.597.825-.547 1.2.068.507.44.855.914.855.51 0 .61-.067 1.174-.786 1.981-2.524 4.035-4.199 6.829-5.572 6.859-3.37 15.021-2.268 20.858 2.815.969.844 1.601 1.521 2.571 2.757.564.719.664.786 1.174.786.474 0 .846-.348.914-.855.05-.375.01-.463-.547-1.2-3.226-4.269-8.086-7.138-13.57-8.009-.876-.139-4.099-.262-4.7-.179m.148 7.039c-2.108.269-4.054 1.12-5.776 2.527-.688.562-1.649 1.645-1.918 2.163-.303.582.206 1.359.889 1.359.356 0 .463-.082 1.569-1.208 1.164-1.183 1.907-1.727 2.988-2.184a9.015 9.015 0 0 1 7.5.19c1.174.573 2.095 1.281 2.905 2.235.757.891 1.098 1.086 1.605.919.187-.062.407-.209.49-.327.204-.292.188-.857-.035-1.22-.319-.52-1.594-1.816-2.307-2.344-1.259-.933-3.102-1.744-4.546-2-.845-.149-2.604-.207-3.364-.11M13.352 24.11c-2.212.327-4.231 1.293-5.923 2.834-1.362 1.241-2.558 3.251-3.097 5.206l-.275 1-.037 5.55c-.026 4.059-.004 5.698.084 6.1.533 2.447 3.288 4.409 6.729 4.793 1.214.135 3.492.137 4.917.004 1.922-.18 3.739-.772 5.038-1.643.364-.244 1.741-1.395 3.06-2.559 1.547-1.364 2.603-2.219 2.974-2.406.78-.394 1.659-.586 2.678-.586 1.384 0 2.482.346 3.536 1.113.346.252.48.293.814.249.535-.07.85-.436.85-.986 0-.354-.058-.463-.425-.802-.508-.469-1.776-1.109-2.675-1.35-.477-.128-1.036-.175-2.1-.175-2.635 0-3.503.39-6.25 2.804-3.231 2.841-3.469 3.031-4.3 3.44-1.629.803-3.37 1.066-6.45.976-1.405-.041-2.035-.103-2.62-.258-1.9-.502-3.417-1.653-3.776-2.865-.086-.292-.108-1.829-.082-5.749.035-5.165.044-5.378.259-6.15.888-3.196 3.236-5.527 6.419-6.374l.85-.226h31.9l.85.226c3.183.847 5.534 3.182 6.418 6.374.213.769.224 1.015.277 6.434l.055 5.634.281.241c.38.327.958.327 1.338 0l.281-.242-.002-5.783-.002-5.784-.266-.971c-1.112-4.057-4.072-6.907-8.261-7.952-.609-.151-2.098-.168-16.569-.186-8.79-.01-16.167.02-16.498.069M36.55 41.121c-.271.155-.428.375-.503.705-.047.204.343 1.493 1.497 4.95.857 2.571 1.592 4.722 1.633 4.78.151.218.577.444.838.444.148 0 .405-.114.571-.254.268-.225.477-.78 1.865-4.953 1.166-3.505 1.548-4.771 1.501-4.983-.169-.773-1.046-1.053-1.62-.519-.143.134-.554 1.222-1.246 3.304C40.517 46.303 40.029 47.7 40 47.7c-.029 0-.452-1.204-.94-2.675-1.216-3.668-1.21-3.652-1.549-3.853-.335-.198-.674-.216-.961-.051m9.1-.026a1.36 1.36 0 0 0-.4.304c-.194.216-.2.363-.2 5.109v4.887l.275.275a.936.936 0 0 0 1.35.001l.275-.275.031-1.948c.017-1.071.066-1.948.11-1.948s.745.902 1.56 2.004c.814 1.103 1.612 2.115 1.772 2.25.42.354.82.323 1.237-.094.364-.364.434-.737.211-1.118-.066-.114-.612-.872-1.212-1.684-.854-1.157-1.06-1.496-.95-1.566a.584.584 0 0 1 .24-.09c.25-.004 1.172-.767 1.496-1.238 1.232-1.789.216-4.243-1.991-4.811-.647-.166-3.436-.209-3.804-.058m3.483 2.041c.469.196.867.708.867 1.114 0 .406-.398.918-.867 1.114-.194.081-.693.136-1.23.136H47V43h.903c.537 0 1.036.055 1.23.136" fill="currentColor" fill-rule="evenodd"/></svg>