<?xml version="1.0" encoding="UTF-8"?>
<svg xmlns="http://www.w3.org/2000/svg" xmlns:xlink="http://www.w3.org/1999/xlink" version="1.1" viewBox="0 0 588 412">
  <defs>
    <style>
      .cls-1, .cls-2 {
        fill: none;
      }

      .cls-3 {
        fill: url(#_Безымянный_градиент_2);
      }

      .cls-3, .cls-4, .cls-5 {
        fill-opacity: .6;
      }

      .cls-4 {
        fill: url(#_Безымянный_градиент_3);
      }

      .cls-2 {
        stroke: #d0f556;
      }

      .cls-2, .cls-6 {
        stroke-width: .5px;
      }

      .cls-7 {
        display: none;
        fill: #f5f5f5;
      }

      .cls-6 {
        fill: #5856d6;
        fill-opacity: .1;
        stroke: #f1f1f1;
      }

      .cls-5 {
        fill: url(#_Безымянный_градиент);
      }
    </style>
    <clipPath id="clippath">
      <polygon class="cls-1" points="130.3 .6 .3 279.1 62.3 411.1 191.8 132.6 130.3 .6"/>
    </clipPath>
    <clipPath id="clippath-3">
      <polygon class="cls-1" points="321.8 .6 191.8 279.1 253.8 411.1 383.3 132.6 321.8 .6"/>
    </clipPath>
    <clipPath id="clippath-6">
      <polygon class="cls-1" points="513.3 .6 383.3 279.1 445.3 411.1 574.8 132.6 513.3 .6"/>
    </clipPath>
    <clipPath id="clippath-9">
      <polygon class="cls-1" points="170.5 166.6 170.5 124 59.3 124 59.3 166.6 84.8 166.6 84.8 257.8 59.3 257.8 59.3 300.4 170.5 300.4 170.5 257.8 145 257.8 145 166.6 170.5 166.6"/>
    </clipPath>
    <linearGradient id="_Безымянный_градиент" data-name="Безымянный градиент" x1="34.6" y1="274.2" x2="228.9" y2="93.8" gradientTransform="translate(0 411.9) scale(1 -1)" gradientUnits="userSpaceOnUse">
      <stop offset="0" stop-color="#fff" stop-opacity=".3"/>
      <stop offset=".3" stop-color="#828282" stop-opacity=".4"/>
      <stop offset=".4" stop-color="#828282" stop-opacity=".4"/>
      <stop offset=".5" stop-color="#828282" stop-opacity=".5"/>
      <stop offset=".9" stop-color="#fff" stop-opacity=".3"/>
    </linearGradient>
    <clipPath id="clippath-12">
      <path class="cls-1" d="M293.3,191.7c-6.9-2-42.3-12.1-48.4-14.1s-11.1-4.9-11.1-8.5,5.6-7.5,17-7.5c35.9,0,53.1,22.1,53.1,22.1,0,0,1.9,2.6,2.6,3.5h34.6v-60.4h-37.2v11c-2.8-2-23.8-15.6-56.3-15.6s-66.8,22.2-66.8,55.5,30.1,47,38.5,50.5,41.1,12.8,55.1,17.1,19.1,7.5,19.1,9.8-6.1,8.1-23.6,8.1c-30.5,0-46.2-18-48.9-21.5h0c-.9-1.2-1.9-2.6-2.3-3.1-.4-.6-1.3-1.9-2-2.9h-34.6v64.5h38.9v-13.5c4.5,3,27.7,17.4,55.4,17.4s70.5-13.5,70.5-55.6-46.9-54.9-53.8-56.9Z"/>
    </clipPath>
    <linearGradient id="_Безымянный_градиент_2" data-name="Безымянный градиент 2" x1="182.8" y1="304.4" x2="375.3" y2="45.6" gradientTransform="translate(0 411.9) scale(1 -1)" gradientUnits="userSpaceOnUse">
      <stop offset="0" stop-color="#fff" stop-opacity=".3"/>
      <stop offset=".3" stop-color="#828282" stop-opacity=".4"/>
      <stop offset=".4" stop-color="#828282" stop-opacity=".4"/>
      <stop offset=".5" stop-color="#828282" stop-opacity=".5"/>
      <stop offset=".9" stop-color="#fff" stop-opacity=".3"/>
    </linearGradient>
    <clipPath id="clippath-15">
      <path class="cls-1" d="M445.7,121.6c-51.7,0-94.1,25.8-94.1,91.8s46,90.7,94.3,90.7,93.8-24.5,93.8-90-45.6-92.5-94.1-92.5ZM446.1,260.1c-17.7,0-29-4.1-29-46.9s8.4-47.4,29.7-47.4,28.6.9,28.6,46-11.6,48.3-29.2,48.3Z"/>
    </clipPath>
    <linearGradient id="_Безымянный_градиент_3" data-name="Безымянный градиент 3" x1="368.9" y1="315" x2="554" y2="33.9" gradientTransform="translate(0 411.9) scale(1 -1)" gradientUnits="userSpaceOnUse">
      <stop offset="0" stop-color="#fff" stop-opacity=".3"/>
      <stop offset=".3" stop-color="#828282" stop-opacity=".4"/>
      <stop offset=".4" stop-color="#828282" stop-opacity=".4"/>
      <stop offset=".5" stop-color="#828282" stop-opacity=".5"/>
      <stop offset=".9" stop-color="#fff" stop-opacity=".3"/>
    </linearGradient>
  </defs>
  <!-- Generator: Adobe Illustrator 28.7.10, SVG Export Plug-In . SVG Version: 1.2.0 Build 236)  -->
  <g>
    <g id="_Слой_1" data-name="Слой_1">
      <rect class="cls-7" y="0" width="588" height="412"/>
      <path class="cls-2" d="M142.3.6L12.3,279.1l62,132L203.8,132.6,142.3.6Z"/>
      <path class="cls-2" d="M333.8.6l-130,278.5,62,132,129.5-278.5L333.8.6Z"/>
      <path class="cls-2" d="M525.3.6l-130,278.5,62,132,129.5-278.5L525.3.6Z"/>
      <path class="cls-6" d="M130.3.6L.3,279.1l62,132L191.8,132.6,130.3.6Z"/>
      <path class="cls-6" d="M321.8.6l-130,278.5,62,132,129.5-278.5L321.8.6Z"/>
      <path class="cls-6" d="M513.3.6l-130,278.5,62,132,129.5-278.5L513.3.6Z"/>
      <path class="cls-5" d="M170.5,166.6v-42.6H59.3v42.6h25.5v91.2h-25.5v42.6h111.2v-42.6h-25.5v-91.2h25.5Z"/>
      <path class="cls-3" d="M293.3,191.7c-6.9-2-42.3-12.1-48.4-14.1s-11.1-4.9-11.1-8.5,5.6-7.5,17-7.5c35.9,0,53.1,22.1,53.1,22.1,0,0,1.9,2.6,2.6,3.5h34.6v-60.4h-37.2v11c-2.8-2-23.8-15.6-56.3-15.6s-66.8,22.3-66.8,55.5,30.1,47,38.5,50.5,41.1,12.8,55.1,17.1,19.1,7.5,19.1,9.8-6.1,8.1-23.6,8.1c-30.5,0-46.2-18-48.9-21.5h0c-.9-1.2-1.9-2.6-2.3-3.1-.4-.6-1.3-1.9-2-2.9h-34.6v64.5h38.9v-13.5c4.5,3,27.7,17.4,55.4,17.4s70.5-13.5,70.5-55.6-46.9-54.9-53.8-56.9Z"/>
      <path class="cls-4" d="M445.7,121.6c-51.7,0-94.1,25.8-94.1,91.8s46,90.7,94.3,90.7,93.8-24.5,93.8-90-45.6-92.5-94.1-92.5ZM446.1,260.1c-17.7,0-29-4.1-29-46.9s8.4-47.4,29.7-47.4,28.6.9,28.6,46-11.6,48.3-29.2,48.3Z"/>
    </g>
  </g>
</svg>