<svg width="32" height="32" viewBox="0 0 32 32" fill="none" xmlns="http://www.w3.org/2000/svg">
<rect width="32" height="32" rx="4" fill="#ED1C24"/>
<path d="M18 7V11C18 11.2652 18.1054 11.5196 18.2929 11.7071C18.4804 11.8946 18.7348 12 19 12H23" stroke="white" stroke-width="1.5" stroke-linecap="round" stroke-linejoin="round"/>
<path d="M9 14L9.00004 9C9.00004 8.46957 8.99994 7.5 9 7.00005C9.50006 7 10.4696 7 11 7H18L23 12V14" stroke="white" stroke-width="1.5" stroke-linecap="round" stroke-linejoin="round"/>
<path d="M23 23C23 23.5304 23 24.5 23 25C22.5 25 21.5305 25 21 25H11C10.4696 25 9.5001 25 9.00006 25C8.99995 24.4142 9.00003 23.5304 9.00003 23" stroke="white" stroke-width="1.5" stroke-linecap="round" stroke-linejoin="round"/>
<path d="M9 20V17" stroke="white" stroke-width="1.5" stroke-linecap="round" stroke-linejoin="round"/>
<path d="M23 20V17" stroke="white" stroke-width="1.5" stroke-linecap="round" stroke-linejoin="round"/>
</svg>
