<svg width="32" height="32" viewBox="0 0 32 32" fill="none" xmlns="http://www.w3.org/2000/svg">
<rect width="32" height="32" rx="4" fill="#8DC8E8"/>
<path d="M18 7V11C18 11.2652 18.1054 11.5196 18.2929 11.7071C18.4804 11.8946 18.7348 12 19 12H23" stroke="white" stroke-width="1.5" stroke-linecap="round" stroke-linejoin="round"/>
<path d="M21 24.9999H11C10.4696 24.9999 9.5001 25 9.00006 25C9.00012 24.5 9.00004 23.5303 9.00004 22.9999V8.99989C9.00004 8.46945 9 7.5 9 6.99993C9.05652 6.94353 10.4696 6.99988 11 6.99988H18L23 11.9999V22.9999C23 23.5303 23.0001 24.5 23.0001 25C22.5001 25 21.5305 24.9999 21 24.9999Z" stroke="white" stroke-width="1.5" stroke-linecap="round" stroke-linejoin="round"/>
</svg>
