<svg xmlns="http://www.w3.org/2000/svg" aria-hidden="true" style="width: 0; height: 0; position: absolute;"><symbol id="close" viewBox="0 0 24 24"><path fill="currentColor" d="m20.86 4.59-1.45-1.45-7.41 7.4-7.41-7.4-1.45 1.45 7.4 7.41-7.4 7.41 1.45 1.45 7.41-7.4 7.41 7.4 1.45-1.45-7.4-7.41z"></path></symbol><symbol id="error" viewBox="0 0 48 48"><path fill="currentColor" d="M24.002 2.26a21.742 21.742 0 0 1 18.076 33.818A21.741 21.741 0 0 1 3.916 15.681 21.74 21.74 0 0 1 24.002 2.26m6.742 5.461a17.62 17.62 0 1 0-6.742 33.9A17.64 17.64 0 0 0 41.622 24 17.62 17.62 0 0 0 30.743 7.72m3.797 8.66L26.921 24l7.62 7.62-2.92 2.92-7.62-7.62-7.62 7.62-2.92-2.92 7.62-7.62-7.62-7.62 2.92-2.92 7.62 7.62 7.62-7.62z"></path></symbol><symbol id="mail" viewBox="0 0 16 16"><path fill="currentColor" d="M1.42 3.39v9.22h13.16V3.39zm10.66 1.34L8 7.48 4.06 4.73zm-9.32 6.54V5.46L8 9.11l5.25-3.54v5.7z"></path></symbol><symbol id="paper" viewBox="0 0 48 48"><path fill="currentColor" d="M8 42q-1.65 0-2.825-1.175T4 38V10q0-1.65 1.175-2.825T8 6h32q1.65 0 2.825 1.175T44 10v28q0 1.65-1.175 2.825T40 42zm0-4h32V10H8zm4-4h24v-4H12zm0-8h8V14h-8zm12 0h12v-4H24zm0-8h12v-4H24z"></path></symbol><symbol id="phone" viewBox="0 0 16 16"><path fill="currentColor" d="m9.64 9.55-.92 2.79a5.94 5.94 0 0 1-4.93-4.43l2.59-1V2.77H3.27a7.27 7.27 0 0 0 10 10V9.55zm-6-3.09a5.9 5.9 0 0 1 .49-2.35H5V6l-1.4.54zm8.3 5.45a6.1 6.1 0 0 1-1.78.45l.49-1.47h1.25z"></path></symbol><symbol id="play-circle" viewBox="0 0 96 96"><path fill="currentColor" d="M48 92.5c-24.6 0-44.5-20-44.5-44.5S23.4 3.5 48 3.5s44.5 20 44.5 44.5S72.6 92.5 48 92.5m0-83.2C26.6 9.3 9.3 26.6 9.3 48S26.7 86.7 48 86.7c21.4 0 38.7-17.4 38.7-38.7C86.7 26.6 69.4 9.3 48 9.3"></path><path fill="currentColor" d="M34.1 70.3V25.7L71.9 48zm5.8-34.5v24.3L60.5 48z"></path></symbol><symbol id="right-arrow" viewBox="0 0 24 24"><path fill="currentColor" d="m7.32 21.045-1.515-1.53 7.485-7.485-7.545-7.545 1.53-1.53 9.075 9.075z"></path></symbol><symbol id="right-circle-arrow-bold" viewBox="0 0 32 32"><path fill="currentColor" d="M16 1.507A14.496 14.496 0 0 1 30.493 16 14.493 14.493 0 1 1 16 1.507m4.495 3.64A11.746 11.746 0 1 0 16 27.747 11.76 11.76 0 0 0 27.747 16a11.75 11.75 0 0 0-7.252-10.853m.945 10.84-7.12 7.106-1.946-1.933 5.173-5.173-5.134-5.147 1.947-1.933z"></path></symbol><symbol id="right-circle-arrow" viewBox="0 0 34 34"><path fill="currentColor" d="M17 2c8.284 0 15 6.716 15 15s-6.716 15-15 15S2 25.284 2 17 8.716 2 17 2m0-2C7.611 0 0 7.611 0 17s7.611 17 17 17 17-7.611 17-17S26.389 0 17 0"></path><path fill="currentColor" d="M21.387 17.28a.925.925 0 0 0 0-1.177l-.064-.072h-.001l-5.747-5.64-.07-.063a.94.94 0 0 0-1.249.064.923.923 0 0 0 0 1.32l5.073 4.98-5.074 4.98h.001a.92.92 0 0 0-.052 1.263l-.204.2h.446a.9.9 0 0 0 .378.121l.09.004.091-.004a.93.93 0 0 0 .568-.263l.88-.858h-.006l4.875-4.783z"></path></symbol><symbol id="right-line-arrow" viewBox="0 0 16 16"><path fill="currentColor" d="m7.98 2.4-.95.95 3.96 3.98H1.88v1.34h9.16l-4 3.98.94.95 5.6-5.57z"></path></symbol><symbol id="search" viewBox="0 0 24 24"><path fill="currentColor" d="m22.94 21.48-7.61-7.61a8.17 8.17 0 1 0-1.46 1.46l7.61 7.61zM2.82 8.9A6.08 6.08 0 1 1 8.9 15a6.09 6.09 0 0 1-6.08-6.1"></path></symbol><symbol id="success" viewBox="0 0 48 48"><path fill="currentColor" d="M24.002 2.26a21.74 21.74 0 1 0 0 43.48 21.74 21.74 0 0 0 0-43.48m0 39.36A17.62 17.62 0 1 1 41.622 24a17.64 17.64 0 0 1-17.62 17.62"></path><path fill="currentColor" d="m21.42 27.74-5.72-6.12-3.02 2.8 8.62 9.24 14.54-14.48-2.9-2.92z"></path></symbol><symbol id="tick" viewBox="0 0 16 16"><path fill="currentColor" d="M6.13 13.03 2.26 8.97l.97-.92 2.92 3.06 7.41-7.39.95.95z"></path></symbol><symbol id="user" viewBox="0 0 24 24"><path fill="currentColor" d="M22.12 14.76v7.08h-2.06v-5.02H3.94v5.02H1.88v-7.08zM9.868 1.554a5.572 5.572 0 0 1 7.277 7.278A5.57 5.57 0 0 1 12 12.27 5.58 5.58 0 0 1 6.43 6.7a5.57 5.57 0 0 1 3.438-5.146M12 3.19a3.51 3.51 0 1 0-.002 7.021A3.51 3.51 0 0 0 12 3.191"></path></symbol></svg>