<svg xmlns="http://www.w3.org/2000/svg" aria-hidden="true" style="width: 0; height: 0; position: absolute;"><symbol id="ai" viewBox="0 0 60 60"><path fill="currentColor" fill-rule="evenodd" d="m15.65 9.061-.75.151c-2.054.41-4.254 2.235-5.194 4.309C9 15.078 9.05 13.779 9.05 30.5c0 14.274.009 15.083.183 15.694.676 2.383 2.403 4.369 4.565 5.247 1.351.549 1.507.559 9.058.559h6.964l.34-.34c.438-.438.453-.83.048-1.283l-.291-.327-7.184-.052c-7.872-.058-7.621-.038-8.733-.671-1.218-.694-2.309-2.038-2.724-3.359l-.226-.718v-29.5l.228-.725c.601-1.912 2.302-3.477 4.222-3.884.963-.204 28.037-.204 29 0 1.889.401 3.578 1.934 4.22 3.831l.229.678.051 9.1c.027 5.005.089 9.18.137 9.279.113.231.58.471.918.471.168 0 .389-.124.605-.34l.34-.34-.001-8.835c0-5.687-.038-9.067-.106-9.485-.403-2.5-2.091-4.714-4.427-5.807-1.467-.687-.203-.636-16.166-.655-7.947-.009-14.54.001-14.65.023m13.456 6.048c-1.16.227-2.887 1.422-3.059 2.116-.181.729.479 1.422 1.178 1.237.124-.033.51-.303.857-.6.715-.61 1.253-.812 2.168-.812 1.084 0 1.474.183 2.544 1.192.583.551 1.184 1.016 1.526 1.182 2.059 1.001 4.453.672 5.998-.824.575-.557.75-.916.647-1.327-.128-.507-.705-.864-1.19-.735-.124.033-.505.299-.848.592-.983.84-2.033 1.067-3.216.695-.452-.142-.733-.341-1.502-1.064-1.617-1.519-3.188-2.027-5.103-1.652m-9.176 7.087c-.428.261-.498.587-.567 2.654-.152 4.504-1.253 10.63-3.02 16.797-.393 1.372-.403 1.471-.176 1.854.444.752 1.467.61 1.78-.248.219-.599.803-2.743 1.363-5.003 1.144-4.617 1.894-9.299 2.056-12.825L21.431 24h8.339l.06 2.825c.039 1.783.12 3.212.221 3.875.228 1.493.94 5.07 1.063 5.34.131.288.586.56.936.56.354 0 .95-.586.95-.934 0-.139-.066-.538-.146-.885-.235-1.012-.828-4.37-.902-5.106L31.884 29H39v2.595c0 2.801.034 3.014.515 3.262.449.233.771.177 1.145-.197l.34-.34v-6.705l-.308-.307-.307-.308H31.8l-.002-2.175c-.003-2.343-.022-2.435-.566-2.713-.153-.078-1.833-.112-5.6-.112-5.16.001-5.395.009-5.702.196m18.762 17.987c-1.678.438-3.097 1.875-3.543 3.586-.121.466-.149 1.398-.149 4.997 0 4.753.008 4.829.515 5.091.449.233.771.177 1.145-.197l.34-.34V50h6v1.595c0 1.74.066 2.031.515 2.262.449.233.771.177 1.145-.197l.34-.34v-4.396c0-2.573-.042-4.62-.102-4.935-.331-1.744-1.846-3.35-3.59-3.806A6.3 6.3 0 0 0 40 40.012c-.357 0-.946.077-1.308.171m10.846-.029c-.171.087-.362.27-.425.407-.165.363-.159 12.528.006 12.892.066.144.244.326.396.404.449.233.771.177 1.145-.197l.34-.34V40.703l-.275-.302c-.336-.369-.768-.459-1.187-.247m-8.289 2.135c.559.247 1.215.909 1.484 1.496.188.41.217.686.249 2.34L43.019 48H37v-1.595c0-1.861.101-2.439.534-3.067a3.03 3.03 0 0 1 3.715-1.049"></path></symbol><symbol id="auger" viewBox="0 0 60 60"><path fill="currentColor" fill-rule="evenodd" d="M44.215 5.609a2.7 2.7 0 0 0-1.898 1.441c-.118.233-1.367 5.629-2.985 12.89L36.55 32.43l-.076-.828c-.35-3.825-2.763-6.722-6.424-7.716-.742-.201-1.041-.218-4.122-.227l-3.323-.009-.277.277-.278.277-.027 5.948-.028 5.948-1.972.001c-2.204 0-2.92.084-3.595.42-.63.313-1.31 1.018-1.62 1.679-.251.536-.259.613-.292 2.96l-.034 2.411-1.266.059c-.696.033-1.536.132-1.866.22-1.454.388-3.008 1.677-3.688 3.06-1.278 2.594-.639 5.54 1.602 7.391.665.55 1.316.876 2.195 1.101.749.192 1.145.198 12.791.198s12.042-.006 12.791-.198c1.24-.317 2.219-.952 3.113-2.019 1.464-1.749 1.746-4.317.704-6.434-.403-.819-1.26-1.806-1.963-2.262-.272-.176-.495-.351-.495-.388s.102-.114.228-.171c.404-.184.876-.643 1.088-1.059.126-.247 1.399-5.737 3.238-13.963l3.03-13.556.033 18.9.033 18.9.211.455a3.04 3.04 0 0 0 1.488 1.511c1.514.716 3.267.052 3.99-1.511l.211-.455V7.85l-.228-.463c-.858-1.742-3.09-2.271-4.594-1.088l-.262.206-.258-.247c-.546-.523-1.585-.805-2.393-.649m1.11 2.206a.82.82 0 0 1 .175.451c0 .293-7.361 33.37-7.509 33.746a.736.736 0 0 1-1.323.091c-.169-.286-.118-.53 3.536-16.922a5272 5272 0 0 1 3.805-17.005c.169-.645.904-.847 1.316-.361m4.4.186.275.302v22.255c0 16.194-.03 22.315-.112 22.474a.99.99 0 0 1-.888.564.99.99 0 0 1-.888-.564C48.03 52.873 48 46.755 48 30.57V8.327l.214-.272c.425-.54 1.048-.562 1.511-.054M29.266 25.748c2.522.477 4.66 2.644 5.126 5.195.059.327.108 1.62.108 2.875V36.1H24V25.6h2.241c1.561 0 2.479.045 3.025.148M34.5 40.85v2.75h-18v-2.155c0-2.295.029-2.46.516-2.914.129-.12.347-.264.484-.319.159-.063 3.309-.102 8.625-.106L34.5 38.1zm-20.3 4.972c.627.188 1.08.467 1.595.983 1.652 1.651 1.591 4.184-.139 5.779-.75.691-1.595 1.014-2.656 1.014-1.417 0-2.614-.665-3.386-1.881-1.467-2.31-.097-5.473 2.604-6.011.489-.098 1.46-.041 1.982.116m16.36.419c-.975 1.424-1.303 3.358-.849 5.009.155.561.645 1.531.999 1.975l.299.375H17.491l.299-.375c.354-.444.844-1.414.999-1.975.454-1.651.126-3.585-.849-5.009l-.439-.641h13.498zm5.644-.54a3.9 3.9 0 0 1 2.078 1.09c1.665 1.666 1.61 4.192-.126 5.793-.75.691-1.595 1.014-2.656 1.014s-1.906-.323-2.656-1.014c-1.736-1.601-1.791-4.127-.126-5.793.747-.746 1.369-1.004 2.843-1.178.062-.007.351.032.643.088"></path></symbol><symbol id="bim" viewBox="0 0 60 60"><path fill="currentColor" fill-rule="evenodd" d="M33.413 7.113a6 6 0 0 0-1.1.317c-.597.241-17.773 10.038-18.721 10.678-1.21.816-2.139 2.203-2.442 3.642-.219 1.044-.219 21.456 0 22.5.303 1.441 1.235 2.83 2.442 3.64.307.206 2.92 1.594 5.808 3.084l5.55 2.867c.165.087.414.158.553.158.154.001 4.453-2.425 10.95-6.179 5.884-3.398 11.05-6.38 11.482-6.625.473-.268.841-.552.925-.715.205-.395.203-25.604-.002-25.973-.15-.271-11.324-6.762-12.229-7.104-.985-.373-2.11-.474-3.216-.29m2.712 2.261c.699.328 9.352 5.283 9.554 5.47.118.111-5.109 3.181-18.757 11.017l-1.428.82-5.572-3.25a683 683 0 0 1-5.622-3.299c-.027-.027.052-.132.176-.232.219-.178 16.319-9.426 17.823-10.239 1.007-.544 1.495-.669 2.426-.62.59.03.924.11 1.4.333m10.871 18.651-.003 11.425-10.183 5.875c-5.6 3.231-10.212 5.875-10.247 5.875s-.052-5.135-.038-11.41l.025-11.411 10.2-5.889c5.61-3.239 10.211-5.889 10.225-5.89s.023 5.141.021 11.425M24.475 39.84c.014 6.303-.003 11.46-.037 11.46-.035 0-2.223-1.114-4.862-2.475-3.391-1.749-4.942-2.602-5.286-2.908-.328-.292-.61-.681-.863-1.195l-.377-.762V33.055c0-5.998.031-10.982.07-11.075.059-.143.98.361 5.7 3.115l5.63 3.285zM41.65 25.689c-.968.511-1.347.767-1.486 1.001a.926.926 0 0 0 .807 1.41c.312 0 2.374-.963 2.838-1.326.736-.575.309-1.779-.629-1.772-.127 0-.815.31-1.53.687m-10 5c-.968.511-1.347.767-1.486 1.001a.926.926 0 0 0 .807 1.41c.312 0 2.374-.963 2.838-1.326.736-.575.309-1.779-.629-1.772-.127 0-.815.31-1.53.687m-15.12.431c-.224.108-.53.636-.53.915 0 .441.255.664 1.554 1.356 1.546.824 1.886.884 2.354.417.359-.36.391-.855.081-1.249-.245-.311-2.673-1.562-3.013-1.552a1.3 1.3 0 0 0-.446.113m25.12 1.569c-.968.511-1.347.767-1.486 1.001a.926.926 0 0 0 .807 1.41c.312 0 2.374-.963 2.838-1.326.736-.575.309-1.779-.629-1.772-.127 0-.815.31-1.53.687m-10 6c-.968.511-1.347.767-1.486 1.001a.926.926 0 0 0 .807 1.41c.312 0 2.374-.963 2.838-1.326.736-.575.309-1.779-.629-1.772-.127 0-.815.31-1.53.687m-15.12.431c-.224.108-.53.636-.53.915 0 .441.255.664 1.554 1.356 1.546.824 1.886.884 2.354.417.359-.36.391-.855.081-1.249-.245-.311-2.673-1.562-3.013-1.552a1.3 1.3 0 0 0-.446.113"></path></symbol><symbol id="bulldozer" viewBox="0 0 60 60"><path fill="currentColor" fill-rule="evenodd" d="M18.65 14.09a1.4 1.4 0 0 0-.4.309c-.195.216-.201.383-.227 6.152l-.028 5.931-2.422.034c-2.382.034-2.433.039-2.993.301a3.9 3.9 0 0 0-1.763 1.763c-.262.56-.267.61-.301 2.995L10.482 34H9.5c-2.104 0-3.399.494-4.709 1.796-1.417 1.407-1.988 3.109-1.705 5.086.352 2.46 2.42 4.609 4.822 5.008.92.153 23.764.153 24.684 0 2.007-.334 3.89-1.977 4.61-4.021l.183-.519 4.605-.05 4.606-.05.238-.25c.251-.263 8.363-11.704 8.637-12.182.349-.609-.123-1.418-.827-1.418-.181 0-2.918.9-6.082 2l-5.752 2H32.512l-.036-5.125c-.033-4.936-.043-5.155-.257-5.925a8.72 8.72 0 0 0-6.069-6.065c-.734-.202-1.068-.223-4.05-.251-1.787-.016-3.34.009-3.45.056m6.909 2.11c1.281.324 1.974.729 2.993 1.748s1.424 1.712 1.748 2.993c.172.682.2 1.12.2 3.175V26.5H20V16h2.384c2.055 0 2.493.028 3.175.2M30.5 31.25V34H12.49l.03-2.275c.029-2.164.041-2.29.252-2.586.476-.667-.007-.634 9.303-.637L30.5 28.5zm21.338-.725c-.041.069-1.469 2.094-3.173 4.501l-3.1 4.376-4.052-.026-4.053-.026-.112-.619c-.297-1.645-1.639-3.342-3.248-4.107-.467-.222-1.019-.433-1.225-.468-.359-.062-.375-.082-.375-.461V33.3l5.475-.001h5.475l4.1-1.44c2.255-.791 4.159-1.444 4.231-1.449.078-.006.101.04.057.115m-41.799 5.626c1.937.505 3.23 2.514 2.891 4.493-.15.876-.476 1.496-1.133 2.153-.959.959-2.157 1.353-3.441 1.133-.876-.15-1.496-.476-2.153-1.133S5.22 41.52 5.07 40.644c-.485-2.832 2.161-5.224 4.969-4.493m16.613.333a6.01 6.01 0 0 0-.003 7.028L27 44H13.5l.351-.488a6.04 6.04 0 0 0 0-7.024L13.5 36H27zm5.887-.333c1.937.505 3.23 2.514 2.891 4.493-.15.876-.476 1.496-1.133 2.153-.959.959-2.157 1.353-3.441 1.133-.876-.15-1.496-.476-2.153-1.133s-.983-1.277-1.133-2.153c-.485-2.832 2.161-5.224 4.969-4.493"></path></symbol><symbol id="close" viewBox="0 0 60 60"><path fill="currentColor" fill-rule="evenodd" d="M14.7 14.071c-.512.187-.788.78-.599 1.287.064.17 3.089 3.274 7.278 7.467L28.548 30l-7.169 7.175c-4.254 4.258-7.214 7.295-7.279 7.471-.293.784.473 1.546 1.258 1.253.17-.064 3.274-3.089 7.467-7.278L30 31.452l7.175 7.169c4.193 4.189 7.297 7.214 7.467 7.278.785.293 1.551-.469 1.258-1.253-.065-.176-3.025-3.213-7.279-7.471L31.452 30l7.169-7.175c4.189-4.193 7.214-7.297 7.278-7.467.293-.785-.469-1.551-1.253-1.258-.176.065-3.213 3.025-7.471 7.279L30 28.548l-7.175-7.169c-3.994-3.99-7.3-7.215-7.457-7.274-.303-.113-.434-.12-.668-.034"></path></symbol><symbol id="drone" viewBox="0 0 60 60"><path fill="currentColor" fill-rule="evenodd" d="M14.537 6.65a9.73 9.73 0 0 0-7.434 6.227c-1.097 3.003-.626 6.453 1.236 9.062.493.691 1.69 1.865 2.401 2.354 1.089.749 2.766 1.4 4.032 1.564.503.066.536.055.875-.284.446-.446.47-.842.078-1.271-.222-.244-.465-.349-1.259-.548-2.321-.582-4.152-2.037-5.155-4.096-.609-1.249-.754-1.903-.756-3.408-.002-1.858.369-3.055 1.395-4.5 1.801-2.537 5.042-3.766 8.038-3.048 2.879.691 5.034 2.844 5.766 5.764.199.794.304 1.037.548 1.259.429.392.825.368 1.271-.078.339-.339.35-.372.284-.875-.18-1.39-.926-3.193-1.794-4.339-1.007-1.328-2.622-2.588-4.113-3.209-1.525-.635-3.738-.869-5.413-.574m27.666-.036c-1.4.232-2.962.882-4.142 1.725-.691.493-1.865 1.69-2.354 2.401-.749 1.089-1.4 2.766-1.564 4.032-.066.503-.055.536.284.875.446.446.842.47 1.271.078.244-.222.349-.465.548-1.259.583-2.325 2.034-4.149 4.107-5.162 3.419-1.67 7.507-.639 9.697 2.446 1.026 1.445 1.397 2.642 1.395 4.5-.002 1.505-.147 2.159-.756 3.408-1.003 2.059-2.834 3.514-5.155 4.096-.794.199-1.037.304-1.259.548-.392.429-.368.825.078 1.271.338.338.372.349.875.285 1.217-.156 2.976-.839 4.032-1.565.707-.486 1.907-1.661 2.393-2.343 2.453-3.437 2.432-8.141-.052-11.498-.773-1.045-1.958-2.087-3.115-2.74-1.73-.977-4.303-1.426-6.283-1.098m-26.639 8.95c-.208.207-.264.36-.264.72v.456l4.35 4.358L24 25.455v9.09l-4.35 4.357-4.35 4.358v.456c0 .639.345.984.984.984h.456l4.358-4.35L25.455 36h9.09l4.357 4.35 4.358 4.35h.451c.622 0 .989-.371.989-1.001v-.439l-4.35-4.358L36 34.545v-9.09l4.35-4.357 4.35-4.358v-.451c0-.622-.371-.989-1.001-.989h-.439l-4.358 4.35L34.545 24h-9.09l-4.357-4.35-4.358-4.35h-.456c-.36 0-.513.056-.72.264M34 30v4h-8v-8h8zm-19.9 4.255c-.797.172-1.34.37-2.25.823-.955.475-1.455.832-2.33 1.663-1.841 1.75-2.846 3.96-2.982 6.559-.3 5.772 4.403 10.454 10.212 10.166 2.887-.143 5.538-1.557 7.313-3.899.846-1.117 1.623-2.994 1.795-4.339.064-.503.053-.537-.285-.875-.446-.446-.842-.47-1.271-.078-.244.222-.349.465-.548 1.259-.583 2.325-2.034 4.149-4.107 5.162-3.057 1.493-6.698.842-9.002-1.609-.935-.995-1.475-1.936-1.857-3.237-.306-1.043-.331-3.039-.051-4.05.769-2.778 2.902-4.845 5.729-5.554.794-.199 1.037-.304 1.259-.548.388-.425.367-.826-.065-1.258-.383-.383-.545-.402-1.56-.185m30.253.172c-.446.446-.47.842-.078 1.271.222.244.465.349 1.259.548 2.827.709 4.96 2.776 5.729 5.554.28 1.011.255 3.007-.051 4.05a7.9 7.9 0 0 1-4.081 4.887c-1.44.723-3.502.948-5.119.561-2.879-.691-5.034-2.844-5.766-5.764-.199-.794-.304-1.037-.548-1.259-.429-.392-.825-.368-1.271.078-.339.339-.35.372-.284.875.18 1.39.926 3.193 1.794 4.339 1.007 1.328 2.622 2.588 4.113 3.209 3.051 1.27 6.824.803 9.498-1.175 4.264-3.154 5.205-9.208 2.105-13.551-.486-.682-1.686-1.857-2.393-2.343-1.089-.749-2.766-1.4-4.032-1.564-.503-.066-.536-.055-.875.284"></path></symbol><symbol id="excavator" viewBox="0 0 60 60"><path fill="currentColor" fill-rule="evenodd" d="M44.55 11.615c-.11.059-2.7 2.603-5.756 5.652l-5.556 5.544-.315-.831c-.827-2.175-2.687-4.05-4.84-4.88-1.352-.522-2.214-.612-5.525-.579l-2.954.029-.277.277-.277.277-.027 5.939-.028 5.939-2.422.034c-2.382.034-2.433.039-2.993.301a3.9 3.9 0 0 0-1.763 1.763c-.262.56-.267.61-.301 2.995l-.034 2.425H10.5c-2.104 0-3.399.494-4.709 1.796-1.417 1.407-1.988 3.109-1.705 5.086.352 2.46 2.42 4.609 4.822 5.008.92.153 23.764.153 24.684 0 1.746-.29 3.488-1.627 4.289-3.29.811-1.687.811-3.513 0-5.2a6.03 6.03 0 0 0-2.781-2.776c-.467-.222-1.019-.433-1.225-.468l-.375-.065V25.449l5.675-5.671 5.675-5.672 3.331 5.214 3.331 5.214-5.096 5.108c-5.479 5.492-5.402 5.4-5.068 6.078.342.695 2.086 1.866 3.447 2.316 4.412 1.458 9.158-.853 10.672-5.198 1.042-2.991.43-6.086-1.698-8.588-.188-.22-2.017-3.032-4.066-6.25s-3.877-5.996-4.063-6.175q-.532-.512-1.09-.21M26.559 18.7c1.281.324 1.974.729 2.993 1.748s1.424 1.712 1.748 2.993c.172.682.2 1.12.2 3.175V29H21V18.5h2.384c2.055 0 2.493.028 3.175.2m26.797 8.55c.634 1.332.793 2.83.444 4.209-.33 1.305-.82 2.175-1.748 3.104-.956.956-2.012 1.53-3.304 1.797-1.493.309-3.383-.008-4.588-.77l-.49-.309 4.54-4.542c4.123-4.124 4.553-4.525 4.676-4.365.075.097.287.491.47.876M31.5 33.75v2.75H13.49l.03-2.275c.029-2.164.041-2.29.252-2.586.476-.667-.007-.634 9.303-.637L31.5 31zm-20.461 4.901c1.937.505 3.23 2.514 2.891 4.493-.15.876-.476 1.496-1.133 2.153-.959.959-2.157 1.353-3.441 1.133-.876-.15-1.496-.476-2.153-1.133S6.22 44.02 6.07 43.144c-.485-2.832 2.161-5.224 4.969-4.493m16.613.333a6 6 0 0 0-.003 7.028L28 46.5H14.5l.351-.488a6.04 6.04 0 0 0 0-7.024L14.5 38.5H28zm5.887-.333c1.937.505 3.23 2.514 2.891 4.493-.15.876-.476 1.496-1.133 2.153-.959.959-2.157 1.353-3.441 1.133-.876-.15-1.496-.476-2.153-1.133s-.983-1.277-1.133-2.153c-.485-2.832 2.161-5.224 4.969-4.493"></path></symbol><symbol id="long-arrow" viewBox="0 0 34 24"><path fill="currentColor" d="M27.446 6.696a.75.75 0 0 1 1.062 0l4.772 4.774a.75.75 0 0 1 0 1.06l-4.772 4.774a.751.751 0 0 1-1.062-1.062l3.493-3.492H.75a.75.75 0 0 1 0-1.5h30.19l-3.494-3.492a.75.75 0 0 1 0-1.062"></path></symbol><symbol id="lot" viewBox="0 0 60 60"><path fill="currentColor" fill-rule="evenodd" d="M16.95 6.064c-2.308.197-3.748.727-4.781 1.758-.6.599-.979 1.401-1.362 2.878-.164.633-2.013 9.385-4.11 19.45C3.078 47.52 2.886 48.493 2.924 49.3c.031.663.1.975.313 1.419.553 1.158 1.503 1.908 2.743 2.169.722.153 46.775.158 47.72.006 1.638-.263 2.723-1.157 3.141-2.587.366-1.253.406-.996-3.139-20.609-1.813-10.036-3.412-18.675-3.553-19.198-.351-1.302-.748-2.109-1.318-2.678-.805-.803-1.779-1.27-3.331-1.597-.659-.138-2.405-.16-14.45-.176-7.535-.011-13.88-.004-14.1.015M45.517 8.27c1.556.441 2.155.945 2.521 2.123.4 1.285.472 1.669 3.776 19.957C53.8 41.344 55.03 48.399 55.033 48.8c.007 1.233-.445 1.885-1.452 2.093-.378.078-7.261.102-23.931.083-22.787-.025-23.41-.031-23.784-.217-.543-.269-.895-.844-.945-1.543-.033-.46.646-3.865 3.624-18.166 4.097-19.676 4.083-19.606 4.414-20.657.435-1.381 1.455-2.044 3.522-2.29.368-.044 6.879-.073 14.469-.065l13.8.015zm-28.064 7.803c-.345.088-.863.495-1.137.893l-.266.384v5.3l.266.384c.146.212.438.504.65.65l.384.266h26.3l.384-.266c.212-.146.504-.438.65-.65l.266-.384v-5.3l-.266-.384a3 3 0 0 0-.65-.65l-.384-.266-13-.014c-7.15-.008-13.089.009-13.197.037M43 20v2H18v-4h25zm-3.322 12.153c-1.618.321-3.279 1.649-4.065 3.247-1.129 2.297-.668 4.966 1.176 6.811 1.398 1.398 3.141 1.982 5.086 1.704 2.578-.369 4.671-2.462 5.04-5.04.278-1.945-.306-3.688-1.704-5.086-1.494-1.494-3.407-2.06-5.533-1.636m-22.978.914c-1.028.401-.79 1.929.3 1.929.872 0 1.303-1.082.669-1.678-.241-.227-.717-.35-.969-.251m10 0c-1.028.401-.79 1.929.3 1.929.872 0 1.303-1.082.669-1.678-.241-.227-.717-.35-.969-.251m15.339 1.084c1.937.505 3.23 2.514 2.891 4.493-.15.876-.476 1.496-1.133 2.153-.959.959-2.157 1.353-3.441 1.133-.876-.15-1.496-.476-2.153-1.133s-.983-1.277-1.133-2.153c-.485-2.832 2.161-5.224 4.969-4.493M16.7 40.567c-1.028.401-.79 1.929.3 1.929.872 0 1.303-1.082.669-1.678-.241-.227-.717-.35-.969-.251m10 0c-1.028.401-.79 1.929.3 1.929.872 0 1.303-1.082.669-1.678-.241-.227-.717-.35-.969-.251"></path></symbol><symbol id="pipes" viewBox="0 0 60 60"><path fill="currentColor" fill-rule="evenodd" d="M27.55 9.114c-2.325.296-4.596 1.424-6.304 3.132a10.943 10.943 0 0 0 0 15.508 10.95 10.95 0 0 0 15.508 0 10.95 10.95 0 0 0 0-15.508c-2.425-2.426-5.779-3.567-9.204-3.132m3.75 2.183c2.481.696 4.587 2.416 5.698 4.653.768 1.549.947 2.314.947 4.05s-.179 2.5-.947 4.05c-1.119 2.254-3.21 3.953-5.748 4.67-1.156.326-3.348.325-4.5-.002-3.139-.892-5.465-3.167-6.412-6.273-.247-.81-.273-1.042-.273-2.445s.026-1.635.273-2.445c1.035-3.395 3.756-5.826 7.228-6.457.818-.149 2.889-.038 3.734.199m-3.554 1.304c-2.819.511-5.107 2.534-5.934 5.248-.207.68-.244 1.005-.244 2.151s.037 1.471.244 2.151a7.65 7.65 0 0 0 5.037 5.037c.68.207 1.005.244 2.151.244s1.471-.037 2.151-.244a7.65 7.65 0 0 0 5.037-5.037c.207-.68.244-1.005.244-2.151s-.037-1.471-.244-2.151c-.729-2.391-2.679-4.338-5.037-5.027-.902-.264-2.571-.372-3.405-.221m2.53 2.05c.988.232 1.793.696 2.585 1.488 1.095 1.095 1.636 2.372 1.636 3.861s-.541 2.766-1.636 3.861-2.372 1.636-3.861 1.636-2.766-.541-3.861-1.636c-2.203-2.203-2.203-5.519 0-7.722 1.399-1.399 3.246-1.934 5.137-1.488M15.55 29.114c-2.325.296-4.596 1.424-6.304 3.132a10.943 10.943 0 0 0 0 15.508c3.712 3.713 9.455 4.279 13.854 1.367 4.41-2.919 6.081-8.68 3.935-13.571-1.937-4.413-6.644-7.051-11.485-6.436m25 0c-2.325.296-4.596 1.424-6.304 3.132a10.943 10.943 0 0 0 0 15.508c3.712 3.713 9.455 4.279 13.854 1.367 4.41-2.919 6.081-8.68 3.935-13.571-1.937-4.413-6.644-7.051-11.485-6.436M19.3 31.297c2.481.696 4.587 2.416 5.698 4.653.768 1.549.947 2.314.947 4.05s-.179 2.5-.947 4.05c-1.119 2.254-3.21 3.953-5.748 4.67-1.156.326-3.348.325-4.5-.002-3.139-.892-5.465-3.167-6.412-6.273-.247-.81-.273-1.042-.273-2.445s.026-1.635.273-2.445c1.035-3.395 3.756-5.826 7.228-6.457.818-.149 2.889-.038 3.734.199m25 0c2.481.696 4.587 2.416 5.698 4.653.768 1.549.947 2.314.947 4.05s-.179 2.5-.947 4.05c-1.119 2.254-3.21 3.953-5.748 4.67-1.156.326-3.348.325-4.5-.002-3.139-.892-5.465-3.167-6.412-6.273-.247-.81-.273-1.042-.273-2.445s.026-1.635.273-2.445c1.035-3.395 3.756-5.826 7.228-6.457.818-.149 2.889-.038 3.734.199m-28.05 1.259c-.11.025-.447.095-.75.155-.746.148-2.071.778-2.773 1.318-1.439 1.107-2.434 2.64-2.779 4.279-.19.903-.19 2.481 0 3.384.467 2.219 2.066 4.143 4.285 5.155 1.047.479 1.664.602 3.017.602s1.97-.123 3.017-.602c2.215-1.011 3.764-2.866 4.271-5.117.339-1.506.156-3.474-.448-4.815-.892-1.978-2.791-3.593-4.913-4.177-.525-.145-2.546-.271-2.927-.182m24.5 0c-.11.025-.447.095-.75.155-1.196.237-2.826 1.193-3.753 2.201C34.915 36.359 34.3 37.966 34.3 40c0 1.708.41 3.038 1.336 4.335.78 1.092 1.802 1.921 3.097 2.512 1.047.479 1.664.602 3.017.602s1.97-.123 3.017-.602c2.215-1.011 3.764-2.866 4.271-5.117.203-.9.209-2.493.014-3.422-.543-2.578-2.725-4.84-5.375-5.57-.525-.145-2.546-.271-2.927-.182m-21.73 2.23a5.63 5.63 0 0 1 3.533 3.756c.224.775.224 2.141 0 2.916a5.71 5.71 0 0 1-3.653 3.804c-.404.137-.841.186-1.65.186-1.662 0-2.754-.446-3.896-1.593-1.05-1.053-1.578-2.342-1.578-3.855s.528-2.802 1.578-3.855a5.63 5.63 0 0 1 2.946-1.583c.549-.106 2.157.026 2.72.224m24.5 0a5.63 5.63 0 0 1 3.533 3.756c.224.775.224 2.141 0 2.916a5.71 5.71 0 0 1-3.653 3.804c-.404.137-.841.186-1.65.186-1.662 0-2.754-.446-3.896-1.593-1.05-1.053-1.578-2.342-1.578-3.855s.528-2.802 1.578-3.855a5.63 5.63 0 0 1 2.946-1.583c.549-.106 2.157.026 2.72.224"></path></symbol><symbol id="profile" viewBox="0 0 60 60"><path fill="currentColor" fill-rule="evenodd" d="M12.678 8.151c-1.625.328-3.284 1.655-4.062 3.249-.526 1.079-.639 1.817-.598 3.893.032 1.597.033 1.604.307 1.878a.937.937 0 0 0 1.35 0l.275-.275.06-1.923c.072-2.271.134-2.501.956-3.536.35-.441 1.159-1.02 1.734-1.241.254-.097 1.223-.149 3.523-.19l3.173-.056.275-.275a.937.937 0 0 0 0-1.35l-.275-.275-3.023-.018c-2.212-.013-3.203.019-3.695.119m27.972-.056a.972.972 0 0 0-.321 1.58l.275.275 3.173.056c3.225.057 3.478.086 4.123.479.853.52 1.589 1.379 1.899 2.215.08.215.153 1.09.191 2.273l.06 1.923.275.275a.937.937 0 0 0 1.35 0c.273-.273.275-.285.309-1.848.042-2.015-.083-2.83-.606-3.923-.794-1.661-2.538-2.999-4.286-3.29-.76-.127-6.139-.139-6.442-.015M27.155 24.309c-5.914 2.222-10.189 3.882-10.32 4.005-.303.285-.377.692-.203 1.109.14.334.274.4 4.431 2.176 2.358 1.007 4.336 1.881 4.397 1.941s.905 1.978 1.878 4.26c1.849 4.343 2.048 4.7 2.619 4.7.544 0 .811-.254 1.126-1.074.165-.427 1.887-5.006 3.828-10.176 2.346-6.25 3.529-9.529 3.531-9.785.003-.311-.06-.442-.321-.675-.199-.178-.43-.287-.598-.283-.15.004-4.816 1.715-10.368 3.802m8.353-.334c-.227.613-5.216 13.911-5.501 14.665-.053.137-.457-.71-1.482-3.1-.776-1.81-1.492-3.372-1.592-3.473s-1.665-.817-3.476-1.593c-1.811-.777-3.251-1.427-3.2-1.444.051-.018 3.558-1.335 7.793-2.927a5600 5600 0 0 1 7.722-2.899c.013-.002-.106.345-.264.771M8.65 42.591a1.4 1.4 0 0 0-.4.307c-.178.199-.204.391-.234 1.787-.043 2.007.084 2.823.606 3.915.816 1.708 2.559 3.021 4.378 3.299.475.073 1.784.103 3.573.083l2.823-.032.275-.275a.937.937 0 0 0 0-1.35l-.275-.275-3.173-.056c-2.3-.041-3.269-.093-3.523-.19-.575-.221-1.384-.8-1.734-1.241-.822-1.035-.884-1.265-.956-3.536-.059-1.88-.066-1.928-.31-2.172-.278-.278-.744-.395-1.05-.264m42 0a1.4 1.4 0 0 0-.4.307c-.181.201-.205.406-.253 2.137-.051 1.821-.067 1.944-.328 2.508-.361.779-.843 1.355-1.491 1.78-.923.605-.956.61-4.401.671l-3.173.056-.275.275a.937.937 0 0 0 0 1.35l.275.275 2.823.032c1.789.02 3.098-.01 3.573-.083 1.819-.278 3.562-1.591 4.378-3.299.523-1.093.648-1.908.606-3.923-.033-1.524-.042-1.581-.284-1.823-.278-.277-.744-.394-1.05-.263"></path></symbol><symbol id="qr" viewBox="0 0 60 60"><path fill="currentColor" fill-rule="evenodd" d="M13.678 9.151c-1.625.328-3.284 1.655-4.062 3.249-.526 1.079-.639 1.817-.598 3.893.032 1.597.033 1.604.307 1.878a.937.937 0 0 0 1.35 0l.275-.275.06-1.923c.072-2.271.134-2.501.956-3.536.35-.441 1.159-1.02 1.734-1.241.254-.097 1.223-.149 3.523-.19l3.173-.056.275-.275a.937.937 0 0 0 0-1.35l-.275-.275-3.023-.018c-2.212-.013-3.203.019-3.695.119m25.972-.056a.972.972 0 0 0-.321 1.58l.275.275 3.173.056c3.225.057 3.478.086 4.123.479.853.52 1.589 1.379 1.899 2.215.08.215.153 1.09.191 2.273l.06 1.923.275.275a.937.937 0 0 0 1.35 0c.273-.273.275-.285.309-1.848.042-2.015-.083-2.83-.606-3.923-.794-1.661-2.538-2.999-4.286-3.29-.76-.127-6.139-.139-6.442-.015m-24 7.998c-.11.046-.29.183-.4.306-.194.216-.2.363-.2 5.109v4.887l.277.278.278.277h9.79l.278-.277.277-.278v-9.79l-.277-.278-.277-.277-4.773-.02c-2.625-.011-4.863.017-4.973.063m18 0c-.11.046-.29.183-.4.306-.194.216-.2.363-.2 5.109v4.887l.277.278.278.277h9.79l.278-.277.277-.278v-9.79l-.277-.278-.277-.277-4.773-.02c-2.625-.011-4.863.017-4.973.063M24 22.5V26h-7v-7h7zm18 0V26h-7v-7h7zM15.65 33.093c-.11.046-.29.183-.4.306-.194.216-.2.363-.2 5.109v4.887l.277.278.278.277h9.79l.278-.277.277-.278v-9.79l-.277-.278-.277-.277-4.773-.02c-2.625-.011-4.863.017-4.973.063m18-.002c-.11.047-.29.185-.4.308-.185.205-.2.363-.2 2.109v1.887l.277.278.278.277h3.79l.278-.277.277-.278v-3.79l-.277-.278-.277-.277-1.773-.022c-.975-.012-1.863.017-1.973.063m6 0c-.11.047-.29.185-.4.308-.185.205-.2.363-.2 2.109v1.887l.277.278.278.277h3.79l.278-.277.277-.278v-3.79l-.277-.278-.277-.277-1.773-.022c-.975-.012-1.863.017-1.973.063M24 38.5V42h-7v-7h7zm12-3v.5h-1v-1h1zm6 0v.5h-1v-1h1zm-8.35 3.591c-.11.047-.29.185-.4.308-.185.205-.2.363-.2 2.109v1.887l.277.278.278.277h3.79l.278-.277.277-.278v-3.79l-.277-.278-.277-.277-1.773-.022c-.975-.012-1.863.017-1.973.063M36 41.5v.5h-1v-1h1zm-26.35.091a1.4 1.4 0 0 0-.4.307c-.178.199-.204.391-.234 1.787-.043 2.007.084 2.823.606 3.915.816 1.708 2.559 3.021 4.378 3.299.475.073 1.784.103 3.573.083l2.823-.032.275-.275a.937.937 0 0 0 0-1.35l-.275-.275-3.173-.056c-2.3-.041-3.269-.093-3.523-.19-.575-.221-1.384-.8-1.734-1.241-.822-1.035-.884-1.265-.956-3.536-.059-1.88-.066-1.928-.31-2.172-.278-.278-.744-.395-1.05-.264m40 0a1.4 1.4 0 0 0-.4.307c-.18.201-.206.412-.26 2.137-.072 2.262-.135 2.494-.956 3.528-.35.441-1.159 1.02-1.734 1.241-.254.097-1.223.149-3.523.19l-3.173.056-.275.275a.937.937 0 0 0 0 1.35l.275.275 2.823.032c1.789.02 3.098-.01 3.573-.083 1.819-.278 3.562-1.591 4.378-3.299.523-1.093.648-1.908.606-3.923-.033-1.524-.042-1.581-.284-1.823-.278-.277-.744-.394-1.05-.263"></path></symbol><symbol id="road" viewBox="0 0 60 60"><path fill="currentColor" fill-rule="evenodd" d="M19.474 11.676c-.153.095-.341.349-.423.573-.206.56-9.957 34.729-10.021 35.116-.094.559.406 1.135.984 1.135.371 0 .78-.327.934-.747.206-.561 9.958-34.73 10.022-35.118.095-.567-.411-1.139-1-1.132-.121.001-.344.079-.496.173m20.068-.062c-.322.157-.573.657-.512 1.021.064.388 9.816 34.557 10.022 35.118.154.42.563.747.934.747.578 0 1.078-.576.984-1.135-.064-.388-9.816-34.557-10.022-35.118-.228-.622-.851-.902-1.406-.633m-9.892 2.477c-.11.047-.29.185-.4.308-.19.211-.2.363-.2 3.109v2.887l.275.275a.935.935 0 0 0 1.35 0l.275-.275v-5.79l-.25-.25c-.278-.278-.744-.395-1.05-.264m0 12.5c-.11.047-.29.185-.4.308-.19.211-.2.363-.2 3.109v2.887l.275.275a.935.935 0 0 0 1.35 0l.275-.275v-5.79l-.25-.25c-.278-.278-.744-.395-1.05-.264m0 12.5c-.11.047-.29.185-.4.308-.19.211-.2.363-.2 3.109v2.887l.275.275a.935.935 0 0 0 1.35 0l.275-.275v-5.79l-.25-.25c-.278-.278-.744-.395-1.05-.264"></path></symbol><symbol id="rotor" viewBox="0 0 60 60"><path fill="currentColor" fill-rule="evenodd" d="M10.826 6.113c-.179.051-.395.199-.48.328-.171.263-1.004 4.68-1.388 7.371-.363 2.539-.457 3.794-.457 6.088.001 3.61.325 5.658 1.659 10.5.287 1.042 1.277 3.311 3.402 7.793 1.098 2.318 3.007 4.697 4.988 6.219 1.654 1.27 4.572 2.887 7.2 3.99 1.235.519 2.936 1.362 3.595 1.782.678.434.97.411 1.81-.142 1.41-.928 2.122-1.271 6.095-2.938 3.731-1.565 6.943-4.396 8.934-7.876.503-.878.721-1.362 2.225-4.923l.736-1.744.167.549c.613 2.011.875 4.536.699 6.719-.21 2.597-.576 4.297-2.004 9.297-.499 1.747-.907 3.314-.907 3.483 0 .422.475.891.902.891.507 0 .876-.282 1.043-.796.081-.25.437-1.466.793-2.704 1.859-6.474 2.221-8.535 2.136-12.151-.053-2.291-.182-3.212-.727-5.204-.419-1.528-.86-2.653-1.901-4.845a81 81 0 0 1-1.448-3.25c-1.581-3.843-2.836-5.826-4.974-7.861-1.722-1.639-3.095-2.533-5.796-3.776-.947-.436-2.826-1.36-4.176-2.053-1.702-.874-2.557-1.26-2.789-1.26-.236 0-1.498.585-4.274 1.982-6.354 3.196-8.143 4.395-10.018 6.717-1.302 1.611-1.929 2.731-3.773 6.729-.401.869-.76 1.599-.8 1.623-.092.057-.453-1.782-.638-3.251-.491-3.906-.19-7.545 1.239-15 .269-1.406.261-1.633-.074-1.991-.328-.35-.565-.42-.999-.296m21.61 6.726c1.218.626 2.934 1.467 3.814 1.87 2.58 1.18 3.937 2.084 5.547 3.694 1.872 1.872 2.743 3.281 4.235 6.852.413.987 1.024 2.44 1.359 3.227.335.788.609 1.49.609 1.561 0 .115-1.799 4.423-2.778 6.654-1.552 3.534-4.512 6.584-7.972 8.212a75 75 0 0 1-2.369 1.03c-1.7.708-3.05 1.359-4.095 1.978l-.663.392-.937-.499a44 44 0 0 0-2.536-1.193c-5.169-2.243-7.644-3.959-9.761-6.767-.882-1.169-1.202-1.782-3.216-6.15-1.087-2.359-1.523-3.576-1.436-4.011.033-.163.425-1.093.872-2.067s1.149-2.514 1.56-3.422c1.56-3.441 3.251-5.65 5.481-7.16 1.46-.989 3.501-2.158 5-2.863a95 95 0 0 0 3.1-1.556c.935-.492 1.761-.901 1.836-.908s1.133.499 2.35 1.126m-4.133 8.911c-3.248.734-5.809 3.34-6.465 6.579-.227 1.123-.149 3.145.161 4.121.726 2.295 2.267 4.117 4.351 5.146 1.27.628 1.93.802 3.3.872 2.58.132 4.603-.631 6.41-2.418 1.839-1.818 2.627-3.824 2.512-6.393-.066-1.455-.305-2.369-.929-3.545-1.093-2.06-2.811-3.481-5.096-4.214-.908-.292-3.248-.373-4.244-.148m3.52 2.005c1.076.278 1.94.799 2.887 1.74 1.348 1.342 1.89 2.646 1.89 4.553 0 1.864-.571 3.24-1.891 4.561S32.012 36.5 30.148 36.5c-1.902 0-3.197-.538-4.551-1.891q-2.321-2.319-1.896-5.416c.205-1.496.782-2.654 1.86-3.732 1.683-1.684 3.952-2.302 6.262-1.706"></path></symbol><symbol id="slider-arrow" viewBox="0 0 24 24"><path fill="currentColor" fill-rule="evenodd" d="m8.99 5.99-.35.35 2.83 2.83L14.3 12l-2.82 2.82-2.82 2.82.35.35.351.35 3.059-3.061 3.06-3.06v-.438L12.41 8.71 9.34 5.639z"></path></symbol><symbol id="vr" viewBox="0 0 60 60"><path fill="currentColor" fill-rule="evenodd" d="M36.65 8.057c-.165.023-.705.091-1.2.151-5.343.652-10.586 3.69-13.87 8.037-.557.737-.597.825-.547 1.2.068.507.44.855.914.855.51 0 .61-.067 1.174-.786 1.981-2.524 4.035-4.199 6.829-5.572 6.859-3.37 15.021-2.268 20.858 2.815.969.844 1.601 1.521 2.571 2.757.564.719.664.786 1.174.786.474 0 .846-.348.914-.855.05-.375.01-.463-.547-1.2-3.226-4.269-8.086-7.138-13.57-8.009-.876-.139-4.099-.262-4.7-.179m.148 7.039c-2.108.269-4.054 1.12-5.776 2.527-.688.562-1.649 1.645-1.918 2.163-.303.582.206 1.359.889 1.359.356 0 .463-.082 1.569-1.208 1.164-1.183 1.907-1.727 2.988-2.184a9.02 9.02 0 0 1 7.5.19c1.174.573 2.095 1.281 2.905 2.235.757.891 1.098 1.086 1.605.919.187-.062.407-.209.49-.327.204-.292.188-.857-.035-1.22-.319-.52-1.594-1.816-2.307-2.344-1.259-.933-3.102-1.744-4.546-2-.845-.149-2.604-.207-3.364-.11M13.352 24.11c-2.212.327-4.231 1.293-5.923 2.834-1.362 1.241-2.558 3.251-3.097 5.206l-.275 1-.037 5.55c-.026 4.059-.004 5.698.084 6.1.533 2.447 3.288 4.409 6.729 4.793 1.214.135 3.492.137 4.917.004 1.922-.18 3.739-.772 5.038-1.643.364-.244 1.741-1.395 3.06-2.559 1.547-1.364 2.603-2.219 2.974-2.406.78-.394 1.659-.586 2.678-.586 1.384 0 2.482.346 3.536 1.113.346.252.48.293.814.249.535-.07.85-.436.85-.986 0-.354-.058-.463-.425-.802-.508-.469-1.776-1.109-2.675-1.35-.477-.128-1.036-.175-2.1-.175-2.635 0-3.503.39-6.25 2.804-3.231 2.841-3.469 3.031-4.3 3.44-1.629.803-3.37 1.066-6.45.976-1.405-.041-2.035-.103-2.62-.258-1.9-.502-3.417-1.653-3.776-2.865-.086-.292-.108-1.829-.082-5.749.035-5.165.044-5.378.259-6.15.888-3.196 3.236-5.527 6.419-6.374l.85-.226h31.9l.85.226c3.183.847 5.534 3.182 6.418 6.374.213.769.224 1.015.277 6.434l.055 5.634.281.241c.38.327.958.327 1.338 0l.281-.242-.002-5.783-.002-5.784-.266-.971c-1.112-4.057-4.072-6.907-8.261-7.952-.609-.151-2.098-.168-16.569-.186-8.79-.01-16.167.02-16.498.069M36.55 41.121c-.271.155-.428.375-.503.705-.047.204.343 1.493 1.497 4.95.857 2.571 1.592 4.722 1.633 4.78.151.218.577.444.838.444.148 0 .405-.114.571-.254.268-.225.477-.78 1.865-4.953 1.166-3.505 1.548-4.771 1.501-4.983-.169-.773-1.046-1.053-1.62-.519-.143.134-.554 1.222-1.246 3.304C40.517 46.303 40.029 47.7 40 47.7s-.452-1.204-.94-2.675c-1.216-3.668-1.21-3.652-1.549-3.853-.335-.198-.674-.216-.961-.051m9.1-.026a1.4 1.4 0 0 0-.4.304c-.194.216-.2.363-.2 5.109v4.887l.275.275a.936.936 0 0 0 1.35.001l.275-.275.031-1.948c.017-1.071.066-1.948.11-1.948s.745.902 1.56 2.004c.814 1.103 1.612 2.115 1.772 2.25.42.354.82.323 1.237-.094q.546-.546.211-1.118c-.066-.114-.612-.872-1.212-1.684-.854-1.157-1.06-1.496-.95-1.566a.6.6 0 0 1 .24-.09c.25-.004 1.172-.767 1.496-1.238 1.232-1.789.216-4.243-1.991-4.811-.647-.166-3.436-.209-3.804-.058m3.483 2.041c.469.196.867.708.867 1.114s-.398.918-.867 1.114c-.194.081-.693.136-1.23.136H47V43h.903c.537 0 1.036.055 1.23.136"></path></symbol></svg>